<?xml version="1.0" encoding="UTF-8" standalone="no"?>
<svg
   xmlns:dc="http://purl.org/dc/elements/1.1/"
   xmlns:cc="http://creativecommons.org/ns#"
   xmlns:rdf="http://www.w3.org/1999/02/22-rdf-syntax-ns#"
   xmlns:svg="http://www.w3.org/2000/svg"
   xmlns="http://www.w3.org/2000/svg"
   xmlns:sodipodi="http://sodipodi.sourceforge.net/DTD/sodipodi-0.dtd"
   xmlns:inkscape="http://www.inkscape.org/namespaces/inkscape"
   version="1.1"
   x="0px"
   y="0px"
   viewBox="0 0 87.913632 83.541001"
   enable-background="new 0 0 100 100"
   xml:space="preserve"
   id="svg4507"
   sodipodi:docname="ComputerVision.svg"
   width="87.913635"
   height="83.541"
   inkscape:version="0.92.5 (2060ec1f9f, 2020-04-08)"><metadata
     id="metadata4513"><rdf:RDF><cc:Work
         rdf:about=""><dc:format>image/svg+xml</dc:format><dc:type
           rdf:resource="http://purl.org/dc/dcmitype/StillImage" /></cc:Work></rdf:RDF></metadata><defs
     id="defs4511" /><sodipodi:namedview
     pagecolor="#ffffff"
     bordercolor="#666666"
     borderopacity="1"
     objecttolerance="10"
     gridtolerance="10"
     guidetolerance="10"
     inkscape:pageopacity="0"
     inkscape:pageshadow="2"
     inkscape:window-width="1366"
     inkscape:window-height="705"
     id="namedview4509"
     showgrid="false"
     inkscape:zoom="3.776"
     inkscape:cx="46.575529"
     inkscape:cy="61.464603"
     inkscape:window-x="-8"
     inkscape:window-y="-8"
     inkscape:window-maximized="1"
     inkscape:current-layer="svg4507" /><path
     d="m 86.85,58.746 c -0.917,-0.618 -2.16,-0.371 -2.774,0.546 -6.47,9.639 -16.24,15.22 -26.863,15.391 V 66.37 c 0,-0.276 -0.224,-0.5 -0.5,-0.5 -0.276001,0 -0.5,0.224 -0.5,0.5 v 8.315 C 38.317,74.392 23.695,58.501 22.429,38.468 h 7.126 c 0.276,0 0.5,-0.224 0.5,-0.5 0,-0.276 -0.224,-0.5 -0.5,-0.5 H 22.37 C 22.345,36.864 21.924,27.146 24.749,21.092 32.493999,14.215 43.036,8.123 56.212,7.776 v 2.695 c 0,0.276 0.224,0.5 0.5,0.5 0.276,0 0.5,-0.224 0.5,-0.5 V 7.756 c 8.644,-0.006 17.977,2.38 27.822,7.197 0.996,0.484 2.19,0.073 2.676,-0.918 0.485,-0.992 0.074,-2.19 -0.918,-2.676 C 76.394999,6.274 66.48,3.729 57.212,3.755 V 0.5 c 0,-0.276 -0.224001,-0.5 -0.5,-0.5 -0.276001,0 -0.5,0.224 -0.5,0.5 V 3.772 C 24.423999,4.771 9.8169995,31.542 6.2459995,37.468 H 2 c -0.276,0 -0.5,0.224 -0.5,0.5 0,0.276 0.224,0.5 0.5,0.5 H 5.6529995 C 1.911,44.872 0,50.053 0,51.619 c 0,3.847 14.191,12.708 19.163,15.509 7.762999,4.374 22.82,11.664 37.049,11.832 v 4.081 c 0,0.276 0.223999,0.5 0.5,0.5 0.275999,0 0.5,-0.224 0.5,-0.5 v -4.075 c 8.906999,-0.052 18.506,-1.497 28.548999,-4.314 1.063,-0.299 1.684,-1.402 1.386,-2.466 -0.299,-1.063 -1.403,-1.685 -2.466,-1.386 -2.934,0.823 -5.824,1.525 -8.667999,2.105 4.357,-2.846 8.227999,-6.684 11.383,-11.386 0.616,-0.916 0.370999,-2.158 -0.546,-2.773 z M 18.983,26.851 c -0.454001,2.621 -0.628,10.012 -0.606001,10.617 H 10.944 C 12.77,34.615 18.504999,27.385 18.983,26.851 Z M 4.0529995,51.36 c 0.348,-1.484 2.327,-6.554 6.2600005,-12.892 h 8.104999 C 19.146,51.028 24.693,62.139 33.006,69.483 18.380999,63.424 5.9449995,54.159 4.0529995,51.36 Z M 67.274,39.94 V 28.751 c 0,-0.553 -0.447001,-1 -1,-1 H 47.150999 c -0.553,0 -1,0.447 -1,1 v 11.188 l -4.434,3.812 c -0.221,0.189 -0.348,0.467 -0.348,0.758 v 2.676 c 0,0.553 0.447001,1 1,1 H 71.055 c 0.553,0 1,-0.447 1,-1 v -2.676 c 0,-0.291 -0.127,-0.568 -0.348,-0.758 z m -2,-10.189 V 40.206 H 48.150999 V 29.751 Z M 47.745,41.207 h 17.934 l 3.26,2.803 H 44.484999 Z m -4.376001,4.978 V 45.009 H 70.055 v 1.176 z M 35.298,32.796 c -0.414,0 -0.75,-0.336 -0.75,-0.75 V 16.555 c 0,-0.414 0.336,-0.75 0.75,-0.75 h 15.491 c 0.414,0 0.75,0.336 0.75,0.75 0,0.414 -0.336,0.75 -0.75,0.75 H 36.048 v 14.741 c 0,0.414 -0.336,0.75 -0.75,0.75 z m 0.75,11.095 v 14.741 h 14.741 c 0.414,0 0.75,0.336 0.75,0.75 0,0.414 -0.336,0.75 -0.75,0.75 H 35.298 c -0.414,0 -0.75,-0.336 -0.75,-0.75 V 43.891 c 0,-0.414 0.336,-0.75 0.75,-0.75 0.414,0 0.75,0.336 0.75,0.75 z M 77.376,32.046 V 17.305 H 62.635 c -0.414,0 -0.75,-0.336 -0.75,-0.75 0,-0.414 0.336,-0.75 0.75,-0.75 h 15.491 c 0.414,0 0.75,0.336 0.75,0.75 v 15.491 c 0,0.414 -0.336,0.75 -0.75,0.75 -0.414,0 -0.75,-0.336 -0.75,-0.75 z m 0.75,11.095 c 0.414,0 0.75,0.336 0.75,0.75 v 15.491 c 0,0.414 -0.336,0.75 -0.75,0.75 H 62.635 c -0.414,0 -0.75,-0.336 -0.75,-0.75 0,-0.414 0.336,-0.75 0.75,-0.75 H 77.376 V 43.891 c 0,-0.414 0.336,-0.75 0.75,-0.75 z m 3.096999,-5.173 c 0,-0.276 -0.224,-0.5 -0.5,-0.5 H 78.626 v -2.097 c 0,-0.276 -0.224,-0.5 -0.5,-0.5 -0.276,0 -0.5,0.224 -0.5,0.5 v 2.097 H 76.954999 C 76.689999,26.692 67.987999,17.99 57.212,17.726 v -0.671 h 2.096999 c 0.276,0 0.5,-0.224 0.5,-0.5 0,-0.276 -0.224,-0.5 -0.5,-0.5 h -2.097 v -2.098 c 0,-0.276 -0.224,-0.5 -0.5,-0.5 -0.276,0 -0.5,0.224 -0.5,0.5 v 2.098 h -2.097 c -0.276,0 -0.5,0.224 -0.5,0.5 0,0.276 0.224,0.5 0.5,0.5 h 2.097 v 0.671 c -10.776,0.265 -19.478,8.967 -19.743,19.742 h -0.671 v -2.114 c 0,-0.276 -0.224,-0.5 -0.5,-0.5 -0.276,0 -0.5,0.224 -0.5,0.5 v 2.114 h -2.114 c -0.276,0 -0.5,0.224 -0.5,0.5 0,0.276 0.224,0.5 0.5,0.5 h 2.114 v 2.115 c 0,0.276 0.224,0.5 0.5,0.5 0.276,0 0.5,-0.224 0.5,-0.5 v -2.115 h 0.671 c 0.265,10.776 8.967,19.478 19.743,19.743 v 0.671 h -2.114 c -0.276,0 -0.5,0.224 -0.5,0.5 0,0.276 0.224,0.5 0.5,0.5 h 2.114 v 2.115 c 0,0.276 0.224,0.5 0.5,0.5 0.276,0 0.5,-0.224 0.5,-0.5 v -2.115 h 2.115 c 0.276,0 0.5,-0.224 0.5,-0.5 0,-0.276 -0.224,-0.5 -0.5,-0.5 h -2.115 v -0.671 c 10.776,-0.265 19.479,-8.967 19.743,-19.743 h 0.671 v 2.098 c 0,0.276 0.224,0.5 0.5,0.5 0.276,0 0.5,-0.224 0.5,-0.5 v -2.098 h 2.097 c 0.276,0 0.5,-0.223 0.5,-0.5 z M 57.212,57.211 v -0.443 c 0,-0.276 -0.224001,-0.5 -0.5,-0.5 -0.276001,0 -0.5,0.224 -0.5,0.5 v 0.443 C 45.986999,56.947 37.733,48.693 37.469,38.468 h 0.444 c 0.276,0 0.5,-0.224 0.5,-0.5 0,-0.276 -0.224,-0.5 -0.5,-0.5 H 37.469 C 37.733,27.244 45.987,18.99 56.212,18.726 v 0.426 c 0,0.276 0.223999,0.5 0.5,0.5 0.275999,0 0.5,-0.224 0.5,-0.5 v -0.426 c 10.224999,0.264 18.479,8.518 18.742999,18.742 h -0.427 c -0.276,0 -0.5,0.224 -0.5,0.5 0,0.276 0.224,0.5 0.5,0.5 h 0.427 C 75.691,48.693 67.436999,56.947 57.212,57.211 Z M 86.597999,37.468 c 0.276,0 0.5,0.224 0.5,0.5 0,0.276 -0.224,0.5 -0.5,0.5 H 83.772 c -0.276,0 -0.5,-0.224 -0.5,-0.5 0,-0.276 0.224,-0.5 0.5,-0.5 z"
     id="path4501"
     inkscape:connector-curvature="0"
     style="fill:#2a4879;fill-opacity:1" /><rect
     style="opacity:1;fill:#000000;fill-opacity:0;stroke:#000000;stroke-width:0;stroke-miterlimit:4;stroke-dasharray:none;stroke-opacity:1"
     id="rect5058"
     width="94.75"
     height="85.805084"
     x="-0.93405068"
     y="-1.3434067" /><rect
     style="opacity:1;fill:#000000;fill-opacity:0;stroke:#000000;stroke-width:0;stroke-miterlimit:4;stroke-dasharray:none;stroke-opacity:1"
     id="rect5062"
     width="100.04662"
     height="86.33474"
     x="-6.2306609"
     y="-1.8730679" /></svg>