<?xml version="1.0" encoding="UTF-8" standalone="no"?>
<svg
   xmlns:dc="http://purl.org/dc/elements/1.1/"
   xmlns:cc="http://creativecommons.org/ns#"
   xmlns:rdf="http://www.w3.org/1999/02/22-rdf-syntax-ns#"
   xmlns:svg="http://www.w3.org/2000/svg"
   xmlns="http://www.w3.org/2000/svg"
   xmlns:sodipodi="http://sodipodi.sourceforge.net/DTD/sodipodi-0.dtd"
   xmlns:inkscape="http://www.inkscape.org/namespaces/inkscape"
   version="1.1"
   x="0px"
   y="0px"
   viewBox="0 0 82.57 82.57"
   enable-background="new 0 0 90 90"
   xml:space="preserve"
   id="svg5584"
   sodipodi:docname="CrashDummy.svg"
   width="82.57"
   height="82.57"
   inkscape:version="0.92.5 (2060ec1f9f, 2020-04-08)"><metadata
     id="metadata5590"><rdf:RDF><cc:Work
         rdf:about=""><dc:format>image/svg+xml</dc:format><dc:type
           rdf:resource="http://purl.org/dc/dcmitype/StillImage" /></cc:Work></rdf:RDF></metadata><defs
     id="defs5588" /><sodipodi:namedview
     pagecolor="#ffffff"
     bordercolor="#666666"
     borderopacity="1"
     objecttolerance="10"
     gridtolerance="10"
     guidetolerance="10"
     inkscape:pageopacity="0"
     inkscape:pageshadow="2"
     inkscape:window-width="1366"
     inkscape:window-height="705"
     id="namedview5586"
     showgrid="false"
     inkscape:zoom="4.7822222"
     inkscape:cx="41.026952"
     inkscape:cy="30.083941"
     inkscape:window-x="-8"
     inkscape:window-y="-8"
     inkscape:window-maximized="1"
     inkscape:current-layer="svg5584" /><path
     d="m 56.126952,28.23606 c 0,-0.9 0,-0.4 0,-0.5 0,-4.8 -3.5,-8.8 -9.1,-8.8 v 9.3 z"
     id="path5566"
     inkscape:connector-curvature="0" /><path
     d="m 38.126952,28.23606 c 0,5.1 4.9,9.3 8.9,9.3 v -9.3 c 0,0 -8.9,-0.1 -8.9,0 z"
     id="path5568"
     inkscape:connector-curvature="0" /><path
     d="m 59.226952,27.83606 c 0,6.8 -5.5,12.2 -12.2,12.2 -6.7,0 -12.2,-5.5 -12.2,-12.2 0,-6.7 5.4,-12.2 12.2,-12.2 6.8,0 12.2,5.5 12.2,12.2 z m 4.4,17.8 c 3.9,0.2 7.7,-1.8 9.7,-5.2 1.7,-3 2.7,-6.2 2.7,-9.5 -0.1,-16.4 -12.5,-29.7000001 -29.4,-29.7000001 -19.6,0 -31.5,13.3000001 -31.5,29.6000001 0,0 -0.6,1.6 -0.7,1.9 l -6.0999997,10.7 c -0.6,1.1 -0.1,2.4 1,2.9 l 2.6999997,1 c 0.6,0.2 0.8,0.9 0.5,1.4 l -1,1.8 c -0.3,0.5 -0.2,1.2 0.2,1.6 l 0.8,1 c 0.2,0.3 0.3,0.7 0,1 l -0.5,0.8 c -0.5,0.7 -0.3,1.7 0.5,2.2 l 0.7,0.4 c 0.5,0.3 0.7,0.8 0.7,1.3 l -0.1,6 c -0.1,3.1 3.1,5.1 5.9,3.9 l 19.6,-9 c 1.4,-0.6 2.4,-1.8 2.8,-3.3 l 2.9,-9.6 c 0.4,-1.3 1.7,-2.2 3.1,-2.2 z"
     id="path5570"
     inkscape:connector-curvature="0"
     style="fill:#2a4879;fill-opacity:1" /><path
     d="m 47.726952,52.73606 11.2,0.9 c 0.6,0 1.1,-0.3 1.3,-0.9 l 0.5,-1.8 c 0.2,-0.8 -0.3,-1.5 -1.1,-1.6 l -11.2,-0.8 c -0.6,0 -1.1,0.3 -1.3,0.9 l -0.5,1.7 c -0.2,0.8 0.3,1.6 1.1,1.6 z"
     id="path5572"
     inkscape:connector-curvature="0" /><path
     d="m 44.626952,60.73606 13.2,-0.7 c 0.6,0 1.1,-0.5 1.2,-1.1 l 0.2,-1.3 c 0.1,-0.7 -0.5,-1.4 -1.2,-1.4 l -12,-0.6 c -0.4,0 -0.7,0.2 -0.8,0.6 l -0.6,2.2 c -0.1,0.4 -0.3,0.7 -0.5,0.9 v 0 c -0.6,0.6 -0.2,1.5 0.5,1.4 z"
     id="path5574"
     inkscape:connector-curvature="0" /><path
     d="m 30.326952,71.83606 27.7,-5.4 c 0.5,-0.1 0.8,-0.5 0.8,-1 v -1.9 c 0,-0.6 -0.5,-1 -1.1,-1 l -23.1,2.5 c -0.1,0 -0.2,0 -0.3,0.1 l -4.7,2.2 c -0.4,0.2 -0.6,0.6 -0.6,1 l 0.2,2.5 c 0,0.6 0.6,1.1 1.1,1 z"
     id="path5576"
     inkscape:connector-curvature="0" /><path
     d="m 32.926952,82.13606 26.1,-9.5 c 0.4,-0.2 0.7,-0.6 0.6,-1.1 l -0.4,-2 c -0.1,-0.6 -0.7,-0.9 -1.2,-0.8 l -27,6.8 c -0.5,0.1 -0.8,0.7 -0.7,1.2 l 1.3,4.6 c 0.2,0.7 0.8,1 1.3,0.8 z"
     id="path5578"
     inkscape:connector-curvature="0" /><rect
     style="opacity:1;fill:#000000;fill-opacity:0;stroke:#000000;stroke-width:0;stroke-miterlimit:4;stroke-dasharray:none;stroke-opacity:1"
     id="rect5592"
     width="82.57"
     height="82.57"
     x="5e-07"
     y="5e-07" /><path
     style="opacity:1;fill:#2a4879;fill-opacity:1;stroke:#000000;stroke-width:0;stroke-miterlimit:4;stroke-dasharray:none;stroke-opacity:1"
     d="m 44.507313,36.91181 c -3.112777,-1.263058 -5.778608,-4.517389 -6.129847,-7.48305 l -0.127169,-1.073742 h 4.315837 4.315837 v 4.495818 4.495818 l -0.6796,-0.0114 c -0.373781,-0.0063 -1.136557,-0.19682 -1.695058,-0.423441 z"
     id="path5594"
     inkscape:connector-curvature="0" /><path
     style="opacity:1;fill:#2a4879;fill-opacity:1;stroke:#000000;stroke-width:0;stroke-miterlimit:4;stroke-dasharray:none;stroke-opacity:1"
     d="m 47.091079,23.582919 v -4.562991 l 1.380639,0.166213 c 3.623711,0.436253 6.493124,2.977324 7.28285,6.449487 0.180481,0.793511 0.328146,1.682943 0.328146,1.976515 v 0.533767 h -4.495817 -4.495818 z"
     id="path5596"
     inkscape:connector-curvature="0" /><path
     style="opacity:1;fill:#2a4879;fill-opacity:1;stroke:#000000;stroke-width:0;stroke-miterlimit:4;stroke-dasharray:none;stroke-opacity:1"
     d="m 52.019863,53.001413 c -5.706084,-0.489017 -5.696219,-0.483454 -5.014733,-2.827683 0.226744,-0.779971 0.479865,-1.210209 0.797014,-1.354712 0.325328,-0.14823 2.213528,-0.08366 6.294276,0.215247 5.228486,0.382975 5.872784,0.470254 6.249045,0.846515 0.390303,0.390303 0.400494,0.496342 0.146356,1.522852 -0.474051,1.914778 -0.631405,2.048442 -2.375126,2.017548 -0.831166,-0.01473 -3.57474,-0.203622 -6.096832,-0.419767 z"
     id="path5598"
     inkscape:connector-curvature="0" /><path
     style="opacity:1;fill:#2a4879;fill-opacity:1;stroke:#000000;stroke-width:0;stroke-miterlimit:4;stroke-dasharray:none;stroke-opacity:1"
     d="m 44.093867,60.418215 c -0.236873,-0.236873 -0.15459,-0.751871 0.17903,-1.120516 0.175139,-0.193527 0.494221,-0.985806 0.70907,-1.760619 0.21485,-0.774814 0.484501,-1.502618 0.599225,-1.617342 0.138713,-0.138714 2.335393,-0.09847 6.557425,0.120131 7.658874,0.396549 7.304227,0.239174 6.750809,2.995684 -0.05129,0.255451 -0.268135,0.558053 -0.481885,0.672449 -0.21375,0.114395 -2.988265,0.352358 -6.165589,0.528805 -6.380081,0.354307 -7.940446,0.389047 -8.148085,0.181408 z"
     id="path5600"
     inkscape:connector-curvature="0" /><path
     style="opacity:1;fill:#2a4879;fill-opacity:1;stroke:#000000;stroke-width:0;stroke-miterlimit:4;stroke-dasharray:none;stroke-opacity:1"
     d="m 29.576724,71.378949 c -0.115288,-0.143761 -0.274099,-0.970506 -0.352913,-1.837211 -0.173933,-1.912719 -0.271066,-1.80472 2.970723,-3.303047 l 2.354849,-1.08839 11.514208,-1.250801 c 6.332814,-0.687941 11.641585,-1.250802 11.797267,-1.250802 0.928619,0 1.349141,2.415072 0.574319,3.29833 -0.303601,0.34609 -2.686439,0.866543 -13.988044,3.055229 -7.492158,1.450942 -13.85581,2.638077 -14.14145,2.638077 -0.285639,0 -0.613671,-0.117623 -0.728959,-0.261385 z"
     id="path5602"
     inkscape:connector-curvature="0" /><path
     style="opacity:1;fill:#2a4879;fill-opacity:1;stroke:#000000;stroke-width:0;stroke-miterlimit:4;stroke-dasharray:none;stroke-opacity:1"
     d="m 31.95404,81.625232 c -0.53071,-0.832246 -1.619898,-5.15001 -1.401888,-5.557367 0.149818,-0.279937 3.370887,-1.164636 13.675321,-3.756061 7.413637,-1.864429 13.720006,-3.389871 14.014152,-3.389871 0.659403,0 0.76891,0.171288 1.08845,1.702521 0.192063,0.920375 0.195388,1.298337 0.01361,1.546936 -0.219827,0.300626 -26.239335,9.924334 -26.83231,9.924334 -0.141522,0 -0.392324,-0.211721 -0.557338,-0.470492 z"
     id="path5604"
     inkscape:connector-curvature="0" /></svg>