<?xml version="1.0" encoding="UTF-8" standalone="no"?>
<svg
   xmlns:dc="http://purl.org/dc/elements/1.1/"
   xmlns:cc="http://creativecommons.org/ns#"
   xmlns:rdf="http://www.w3.org/1999/02/22-rdf-syntax-ns#"
   xmlns:svg="http://www.w3.org/2000/svg"
   xmlns="http://www.w3.org/2000/svg"
   xmlns:sodipodi="http://sodipodi.sourceforge.net/DTD/sodipodi-0.dtd"
   xmlns:inkscape="http://www.inkscape.org/namespaces/inkscape"
   version="1.1"
   x="0px"
   y="0px"
   viewBox="0 0 65.785316 65.93866"
   enable-background="new 0 0 66 66"
   xml:space="preserve"
   id="svg987"
   sodipodi:docname="DataScience.svg"
   width="65.785316"
   height="65.93866"
   inkscape:version="0.92.5 (2060ec1f9f, 2020-04-08)"><metadata
     id="metadata993"><rdf:RDF><cc:Work
         rdf:about=""><dc:format>image/svg+xml</dc:format><dc:type
           rdf:resource="http://purl.org/dc/dcmitype/StillImage" /><dc:title /></cc:Work></rdf:RDF></metadata><defs
     id="defs991" /><sodipodi:namedview
     pagecolor="#ffffff"
     bordercolor="#666666"
     borderopacity="1"
     objecttolerance="10"
     gridtolerance="10"
     guidetolerance="10"
     inkscape:pageopacity="0"
     inkscape:pageshadow="2"
     inkscape:window-width="1366"
     inkscape:window-height="705"
     id="namedview989"
     showgrid="false"
     inkscape:zoom="6.5212121"
     inkscape:cx="31.773235"
     inkscape:cy="30.822489"
     inkscape:window-x="-8"
     inkscape:window-y="-8"
     inkscape:window-maximized="1"
     inkscape:current-layer="svg987" /><g
     id="g981"
     style="fill:#2a4879;fill-opacity:1"><g
       id="g907"
       style="fill:#2a4879;fill-opacity:1"><path
         d="m 58.1,7.8 h -2.5 v 30.6 c 0,1 -0.8,1.9 -1.9,1.9 H 12.3 c -0.5,0 -1,-0.2 -1.3,-0.6 -0.1,-0.1 -0.2,-0.2 -0.2,-0.3 -0.2,-0.3 -0.3,-0.7 -0.3,-1 V 7.8 H 7.9 C 5.4,7.8 3.3,9.9 3.3,12.4 V 43.9 H 62.7 V 12.4 c 0,-2.5 -2.1,-4.6 -4.6,-4.6 z"
         id="path905"
         inkscape:connector-curvature="0"
         style="fill:#2a4879;fill-opacity:1" /></g><g
       id="g911"
       style="fill:#2a4879;fill-opacity:1"><path
         d="m 3.3,47.7 c 0,2.5 2,4.6 4.6,4.6 h 50.3 c 2.5,0 4.6,-2.1 4.6,-4.6 V 45.4 H 3.3 Z M 33,47.2 c 0.9,0 1.6,0.7 1.6,1.6 0,0.9 -0.7,1.6 -1.6,1.6 -0.9,0 -1.6,-0.7 -1.6,-1.6 0,-0.8 0.7,-1.6 1.6,-1.6 z"
         id="path909"
         inkscape:connector-curvature="0"
         style="fill:#2a4879;fill-opacity:1" /></g><g
       id="g915"
       style="fill:#2a4879;fill-opacity:1"><path
         d="M 44.4,58.2 H 43.3 L 42,53.8 H 24 l -1.4,4.4 h -1.1 c -2.5,0 -4.6,2.1 -4.6,4.6 v 1.4 c 0,0.4 0.3,0.8 0.8,0.8 h 30.6 c 0.4,0 0.8,-0.3 0.8,-0.8 V 62.8 C 49,60.3 47,58.2 44.4,58.2 Z"
         id="path913"
         inkscape:connector-curvature="0"
         style="fill:#2a4879;fill-opacity:1" /></g><g
       id="g919"
       style="fill:#2a4879;fill-opacity:1"><path
         d="M 55.6,2.9 C 55.6,1.9 54.8,1 53.7,1 H 12.3 c -1,0 -1.9,0.8 -1.9,1.9 V 6.5 H 55.6 Z M 46.5,4.4 C 46.3,4.6 46.1,4.7 45.9,4.7 45.7,4.7 45.4,4.6 45.3,4.4 45,4.2 44.9,4 44.9,3.7 44.9,3.5 45,3.2 45.2,3.1 45.3,3 45.4,2.9 45.5,2.9 c 0.3,-0.2 0.7,-0.1 1,0.2 0.2,0.2 0.3,0.4 0.3,0.6 -0.1,0.3 -0.2,0.5 -0.3,0.7 z m 3.4,0 c -0.1,0.1 -0.2,0.1 -0.3,0.2 -0.1,0 -0.2,0.1 -0.4,0.1 -0.1,0 -0.2,0 -0.3,-0.1 C 48.8,4.5 48.7,4.5 48.6,4.4 48.4,4.2 48.3,4 48.3,3.7 c 0,-0.2 0.1,-0.5 0.3,-0.6 0.1,-0.1 0.2,-0.2 0.3,-0.2 0.3,-0.2 0.7,-0.1 1,0.2 0.2,0.2 0.3,0.4 0.3,0.6 0,0.3 -0.1,0.5 -0.3,0.7 z m 3.4,0 C 53.1,4.6 52.9,4.7 52.7,4.7 52.5,4.7 52.2,4.6 52.1,4.4 51.9,4.2 51.8,4 51.8,3.7 c 0,-0.2 0.1,-0.5 0.3,-0.6 0.3,-0.3 0.6,-0.3 1,-0.2 0.1,0 0.2,0.1 0.3,0.2 0.2,0.2 0.3,0.4 0.3,0.6 -0.1,0.3 -0.2,0.5 -0.4,0.7 z"
         id="path917"
         inkscape:connector-curvature="0"
         style="fill:#2a4879;fill-opacity:1" /></g><g
       id="g923"
       style="fill:#2a4879;fill-opacity:1"><path
         d="m 35.7,18.7 c -0.9,-0.1 -1.8,-0.1 -2.8,-0.1 -0.9,0 -1.8,0 -2.7,0.1 -0.5,0.7 -1,1.5 -1.5,2.3 -0.5,0.8 -1,1.7 -1.4,2.5 0.4,0.8 0.9,1.7 1.4,2.5 0.5,0.8 1,1.6 1.5,2.3 0.9,0 1.8,0.1 2.8,0.1 0.9,0 1.8,-0.1 2.7,-0.1 0.5,-0.7 1,-1.5 1.5,-2.3 0.5,-0.9 1,-1.7 1.4,-2.5 -0.4,-0.9 -0.9,-1.7 -1.4,-2.5 -0.5,-0.8 -1,-1.5 -1.5,-2.3 z M 33,26.9 c -1.8,0 -3.3,-1.5 -3.3,-3.3 0,-1.8 1.5,-3.3 3.3,-3.3 1.8,0 3.3,1.5 3.3,3.3 0,1.8 -1.5,3.3 -3.3,3.3 z"
         id="path921"
         inkscape:connector-curvature="0"
         style="fill:#2a4879;fill-opacity:1" /></g><g
       id="g927"
       style="fill:#2a4879;fill-opacity:1"><path
         d="m 37.7,28.2 c 0.9,-0.1 1.8,-0.3 2.6,-0.5 -0.3,-0.8 -0.6,-1.6 -0.9,-2.4 -0.3,0.5 -0.6,1.1 -0.9,1.6 -0.3,0.4 -0.5,0.9 -0.8,1.3 z"
         id="path925"
         inkscape:connector-curvature="0"
         style="fill:#2a4879;fill-opacity:1" /></g><g
       id="g931"
       style="fill:#2a4879;fill-opacity:1"><path
         d="m 40.8,17.9 c 0.1,-0.5 0.2,-0.9 0.3,-1.3 0.4,-2.5 0.1,-4.4 -0.9,-5 -0.3,-0.2 -0.6,-0.2 -0.9,-0.2 -1.3,0 -3.2,1 -5.2,2.9 0.8,0.9 1.7,1.9 2.5,3 1.4,0.1 2.9,0.3 4.2,0.6 z"
         id="path929"
         inkscape:connector-curvature="0"
         style="fill:#2a4879;fill-opacity:1" /></g><g
       id="g935"
       style="fill:#2a4879;fill-opacity:1"><path
         d="m 37.7,18.9 c 0.3,0.4 0.6,0.9 0.8,1.3 0.3,0.5 0.6,1.1 0.9,1.6 0.4,-0.8 0.7,-1.7 0.9,-2.5 -0.8,-0.1 -1.7,-0.3 -2.6,-0.4 z"
         id="path933"
         inkscape:connector-curvature="0"
         style="fill:#2a4879;fill-opacity:1" /></g><g
       id="g939"
       style="fill:#2a4879;fill-opacity:1"><path
         d="m 26.6,21.9 c 0.3,-0.5 0.6,-1.1 0.9,-1.6 0.3,-0.4 0.5,-0.9 0.8,-1.3 -0.9,0.1 -1.8,0.3 -2.6,0.5 0.2,0.8 0.5,1.6 0.9,2.4 z"
         id="path937"
         inkscape:connector-curvature="0"
         style="fill:#2a4879;fill-opacity:1" /></g><g
       id="g943"
       style="fill:#2a4879;fill-opacity:1"><path
         d="m 28.3,28.3 c -0.3,-0.4 -0.6,-0.9 -0.9,-1.4 -0.3,-0.5 -0.6,-1.1 -0.9,-1.6 -0.4,0.8 -0.7,1.7 -0.9,2.5 0.9,0.2 1.8,0.3 2.7,0.5 z"
         id="path941"
         inkscape:connector-curvature="0"
         style="fill:#2a4879;fill-opacity:1" /></g><g
       id="g947"
       style="fill:#2a4879;fill-opacity:1"><path
         d="m 32.9,17.2 c 0.5,0 1.1,0 1.6,0 -0.5,-0.6 -1,-1.2 -1.5,-1.8 -0.5,0.6 -1,1.2 -1.6,1.8 0.5,0 1,0 1.5,0 z"
         id="path945"
         inkscape:connector-curvature="0"
         style="fill:#2a4879;fill-opacity:1" /></g><g
       id="g951"
       style="fill:#2a4879;fill-opacity:1"><circle
         cx="33"
         cy="23.6"
         r="1.8"
         id="circle949"
         style="fill:#2a4879;fill-opacity:1" /></g><g
       id="g955"
       style="fill:#2a4879;fill-opacity:1"><path
         d="m 25.3,18 c 1.3,-0.3 2.7,-0.5 4.2,-0.7 0.8,-1.1 1.7,-2.1 2.5,-3 -2,-1.9 -3.9,-2.9 -5.2,-2.9 -0.4,0 -0.7,0.1 -0.9,0.2 -1,0.6 -1.3,2.5 -0.9,5 0,0.5 0.1,0.9 0.3,1.4 z"
         id="path953"
         inkscape:connector-curvature="0"
         style="fill:#2a4879;fill-opacity:1" /></g><g
       id="g959"
       style="fill:#2a4879;fill-opacity:1"><path
         d="m 41.8,27.3 c 0.5,-0.1 1,-0.3 1.4,-0.5 2.4,-0.9 3.8,-2.2 3.8,-3.4 0,-1.2 -1.5,-2.4 -3.9,-3.3 -0.4,-0.2 -0.8,-0.3 -1.3,-0.4 -0.4,1.2 -0.9,2.5 -1.5,3.8 0.6,1.3 1.1,2.6 1.5,3.8 z"
         id="path957"
         inkscape:connector-curvature="0"
         style="fill:#2a4879;fill-opacity:1" /></g><g
       id="g963"
       style="fill:#2a4879;fill-opacity:1"><path
         d="m 12.3,38.8 h 41.5 c 0.2,0 0.4,-0.2 0.4,-0.4 V 8 H 11.9 v 30.5 c 0,0.2 0.1,0.3 0.4,0.3 z M 23.8,18.4 c -0.1,-0.5 -0.3,-1.1 -0.4,-1.6 -0.6,-3.3 0,-5.6 1.6,-6.5 2,-1.2 4.9,0 8,2.9 3,-2.9 6,-4.1 8,-2.9 1.6,0.9 2.1,3.3 1.6,6.5 -0.1,0.5 -0.2,1 -0.3,1.4 0.5,0.1 1,0.3 1.4,0.5 3.1,1.2 4.8,2.8 4.8,4.7 0,1.8 -1.7,3.5 -4.8,4.8 -0.5,0.2 -1,0.4 -1.5,0.5 0.1,0.5 0.3,1.1 0.4,1.6 0.6,3.3 0,5.6 -1.6,6.5 -0.5,0.3 -1,0.4 -1.7,0.4 -1.4,0 -3,-0.7 -4.8,-2.1 -0.5,-0.4 -1,-0.8 -1.5,-1.3 -0.5,0.5 -1,0.9 -1.4,1.3 -1.8,1.4 -3.5,2.1 -4.8,2.1 -0.6,0 -1.2,-0.1 -1.7,-0.4 -1.6,-0.9 -2.1,-3.3 -1.6,-6.5 0.1,-0.5 0.2,-0.9 0.3,-1.4 -3.8,-1.1 -6.2,-3 -6.2,-5.1 -0.1,-2.3 2.3,-4.2 6.2,-5.4 z"
         id="path961"
         inkscape:connector-curvature="0"
         style="fill:#2a4879;fill-opacity:1" /></g><g
       id="g967"
       style="fill:#2a4879;fill-opacity:1"><path
         d="m 40.7,29.1 c -1.3,0.3 -2.7,0.5 -4.2,0.7 -0.8,1.1 -1.6,2.1 -2.5,3 0.4,0.4 0.9,0.8 1.3,1.1 2,1.6 3.8,2.2 4.8,1.6 1,-0.6 1.3,-2.5 0.9,-5 0,-0.4 -0.1,-0.9 -0.3,-1.4 z"
         id="path965"
         inkscape:connector-curvature="0"
         style="fill:#2a4879;fill-opacity:1" /></g><g
       id="g971"
       style="fill:#2a4879;fill-opacity:1"><path
         d="m 24.2,27.4 c 0.4,-1.2 0.9,-2.5 1.5,-3.8 -0.6,-1.3 -1.1,-2.5 -1.5,-3.7 -3.3,1 -5.2,2.5 -5.2,3.8 0,1.4 2,2.8 5.2,3.7 z"
         id="path969"
         inkscape:connector-curvature="0"
         style="fill:#2a4879;fill-opacity:1" /></g><g
       id="g975"
       style="fill:#2a4879;fill-opacity:1"><path
         d="m 33.1,30 c -0.1,0 -0.3,0 -0.4,0 -0.4,0 -0.8,0 -1.2,0 0.5,0.6 1,1.2 1.5,1.8 0.5,-0.6 1,-1.2 1.6,-1.8 -0.5,0 -1,0 -1.5,0 z"
         id="path973"
         inkscape:connector-curvature="0"
         style="fill:#2a4879;fill-opacity:1" /></g><g
       id="g979"
       style="fill:#2a4879;fill-opacity:1"><path
         d="m 25.2,29.3 c -0.1,0.4 -0.2,0.9 -0.3,1.3 -0.4,2.5 -0.1,4.4 0.9,5 1,0.6 2.8,0 4.8,-1.6 0.4,-0.3 0.9,-0.7 1.3,-1.1 -0.8,-0.9 -1.7,-1.9 -2.4,-3 -1.5,-0.1 -3,-0.4 -4.3,-0.6 z"
         id="path977"
         inkscape:connector-curvature="0"
         style="fill:#2a4879;fill-opacity:1" /></g></g><rect
     style="opacity:0;fill:#2a485a;fill-opacity:0.48066316;stroke:#000000;stroke-width:0;stroke-miterlimit:4;stroke-dasharray:none;stroke-opacity:1"
     id="rect995"
     width="65.785316"
     height="65.93866"
     x="5e-07"
     y="5e-07" /></svg>