<?xml version="1.0" encoding="UTF-8" standalone="no"?>
<svg
   xmlns:dc="http://purl.org/dc/elements/1.1/"
   xmlns:cc="http://creativecommons.org/ns#"
   xmlns:rdf="http://www.w3.org/1999/02/22-rdf-syntax-ns#"
   xmlns:svg="http://www.w3.org/2000/svg"
   xmlns="http://www.w3.org/2000/svg"
   xmlns:sodipodi="http://sodipodi.sourceforge.net/DTD/sodipodi-0.dtd"
   xmlns:inkscape="http://www.inkscape.org/namespaces/inkscape"
   viewBox="0 0 60.063557 60.222458"
   version="1.1"
   x="0px"
   y="0px"
   id="svg3878"
   sodipodi:docname="MachineLearning.svg"
   width="60.063557"
   height="60.222458"
   inkscape:version="0.92.5 (2060ec1f9f, 2020-04-08)">
  <metadata
     id="metadata3884">
    <rdf:RDF>
      <cc:Work
         rdf:about="">
        <dc:format>image/svg+xml</dc:format>
        <dc:type
           rdf:resource="http://purl.org/dc/dcmitype/StillImage" />
        <dc:title>032 - Machine Learning</dc:title>
      </cc:Work>
    </rdf:RDF>
  </metadata>
  <defs
     id="defs3882" />
  <sodipodi:namedview
     pagecolor="#ffffff"
     bordercolor="#666666"
     borderopacity="1"
     objecttolerance="10"
     gridtolerance="10"
     guidetolerance="10"
     inkscape:pageopacity="0"
     inkscape:pageshadow="2"
     inkscape:window-width="1366"
     inkscape:window-height="705"
     id="namedview3880"
     showgrid="false"
     inkscape:zoom="6.2933333"
     inkscape:cx="32.019557"
     inkscape:cy="25.615233"
     inkscape:window-x="-8"
     inkscape:window-y="-8"
     inkscape:window-maximized="1"
     inkscape:current-layer="g3872" />
  <title
     id="title3752">032 - Machine Learning</title>
  <desc
     id="desc3754">Created with Sketch.</desc>
  <g
     id="g3872"
     style="fill:none;fill-rule:evenodd;stroke:none;stroke-width:1;stroke-linecap:round;stroke-linejoin:round"
     transform="translate(-0.15889781,-0.31779606)">
    <g
       transform="translate(1,1)"
       id="g3870"
       style="stroke:#000000;stroke-width:2;fill:#2a4879;fill-opacity:1;opacity:1">
      <circle
         cx="28"
         cy="29"
         r="3"
         id="circle3756"
         style="fill:#2a4879;fill-opacity:1" />
      <circle
         cx="15"
         cy="31"
         r="3"
         id="circle3758"
         style="fill:#2a4879;fill-opacity:1" />
      <circle
         cx="17"
         cy="18"
         r="3"
         id="circle3760"
         style="fill:#2a4879;fill-opacity:1" />
      <circle
         cx="41"
         cy="21"
         r="3"
         id="circle3762"
         style="fill:#2a4879;fill-opacity:1" />
      <circle
         cx="42"
         cy="33"
         r="3"
         id="circle3764"
         style="fill:#2a4879;fill-opacity:1" />
      <circle
         cx="30"
         cy="12"
         r="3"
         id="circle3766"
         style="fill:#2a4879;fill-opacity:1" />
      <path
         d="M 40.14001,52.13 38.85999,47.87"
         id="path3768"
         inkscape:connector-curvature="0"
         style="fill:#2a4879;fill-opacity:1" />
      <path
         d="m 48.21997,52.10999 -4.43994,1.78002"
         id="path3770"
         inkscape:connector-curvature="0"
         style="fill:#2a4879;fill-opacity:1" />
      <path
         d="m 50.29999,43.97998 0.40002,4.03998"
         id="path3772"
         inkscape:connector-curvature="0"
         style="fill:#2a4879;fill-opacity:1" />
      <path
         d="m 53.98999,29.82001 -2.97998,8.35998"
         id="path3774"
         inkscape:connector-curvature="0"
         style="fill:#2a4879;fill-opacity:1" />
      <path
         d="m 52.59003,14.94 1.81994,9.12"
         id="path3776"
         inkscape:connector-curvature="0"
         style="fill:#2a4879;fill-opacity:1" />
      <path
         d="m 38.75,4.20001 10.5,6.59998"
         id="path3778"
         inkscape:connector-curvature="0"
         style="fill:#2a4879;fill-opacity:1" />
      <path
         d="M 22,3 H 33"
         id="path3780"
         inkscape:connector-curvature="0"
         style="fill:#2a4879;fill-opacity:1" />
      <path
         d="m 9.5,11.32996 7,-6.65998"
         id="path3782"
         inkscape:connector-curvature="0"
         style="fill:#2a4879;fill-opacity:1" />
      <path
         d="M 4.21997,19.26001 5.78003,15.73999"
         id="path3784"
         inkscape:connector-curvature="0"
         style="fill:#2a4879;fill-opacity:1" />
      <path
         d="M 3,32 V 25"
         id="path3786"
         inkscape:connector-curvature="0"
         style="fill:#2a4879;fill-opacity:1" />
      <path
         d="M 9.76001,41.01001 5.23999,36.98999"
         id="path3788"
         inkscape:connector-curvature="0"
         style="fill:#2a4879;fill-opacity:1" />
      <path
         d="m 22.01001,42.22998 -7.02002,0.53998"
         id="path3790"
         inkscape:connector-curvature="0"
         style="fill:#2a4879;fill-opacity:1" />
      <path
         d="M 35.08002,44.32996 27.91998,42.66998"
         id="path3792"
         inkscape:connector-curvature="0"
         style="fill:#2a4879;fill-opacity:1" />
      <circle
         cx="3"
         cy="22"
         r="3"
         id="circle3794"
         style="fill:#2a4879;fill-opacity:1" />
      <circle
         cx="7"
         cy="13"
         r="3"
         id="circle3796"
         style="fill:#2a4879;fill-opacity:1" />
      <circle
         cx="19"
         cy="3"
         r="3"
         id="circle3798"
         style="fill:#2a4879;fill-opacity:1" />
      <circle
         cx="36"
         cy="3"
         r="3"
         id="circle3800"
         style="fill:#2a4879;fill-opacity:1" />
      <circle
         cx="52"
         cy="12"
         r="3"
         id="circle3802"
         style="fill:#2a4879;fill-opacity:1" />
      <circle
         cx="55"
         cy="27"
         r="3"
         id="circle3804"
         style="fill:#2a4879;fill-opacity:1" />
      <circle
         cx="50"
         cy="41"
         r="3"
         id="circle3806"
         style="fill:#2a4879;fill-opacity:1" />
      <circle
         cx="51"
         cy="51"
         r="3"
         id="circle3808"
         style="fill:#2a4879;fill-opacity:1" />
      <circle
         cx="41"
         cy="55"
         r="3"
         id="circle3810"
         style="fill:#2a4879;fill-opacity:1" />
      <circle
         cx="38"
         cy="45"
         r="3"
         id="circle3812"
         style="fill:#2a4879;fill-opacity:1" />
      <circle
         cx="25"
         cy="42"
         r="3"
         id="circle3814"
         style="fill:#2a4879;fill-opacity:1" />
      <circle
         cx="12"
         cy="43"
         r="3"
         id="circle3816"
         style="fill:#2a4879;fill-opacity:1" />
      <circle
         cx="3"
         cy="35"
         r="3"
         id="circle3818"
         style="fill:#2a4879;fill-opacity:1" />
      <path
         d="m 27.33,31.92 -1.66,7.16"
         id="path3820"
         inkscape:connector-curvature="0"
         style="fill:#2a4879;fill-opacity:1" />
      <path
         d="M 36.41,42.46 29.59,31.54"
         id="path3822"
         inkscape:connector-curvature="0"
         style="fill:#2a4879;fill-opacity:1" />
      <path
         d="m 41.05,35.84 -2.1,6.32"
         id="path3824"
         inkscape:connector-curvature="0"
         style="fill:#2a4879;fill-opacity:1" />
      <path
         d="m 12.16,31.95 -6.32,2.1"
         id="path3826"
         inkscape:connector-curvature="0"
         style="fill:#2a4879;fill-opacity:1" />
      <polyline
         points="25.75 30.97 25.74 30.97 14.25 41.03"
         id="polyline3828"
         style="fill:#2a4879;fill-opacity:1" />
      <path
         d="m 25.04,29.46 -7.08,1.08"
         id="path3830"
         inkscape:connector-curvature="0"
         style="fill:#2a4879;fill-opacity:1" />
      <path
         d="m 14.27,33.91 -1.54,6.18"
         id="path3832"
         inkscape:connector-curvature="0"
         style="fill:#2a4879;fill-opacity:1" />
      <path
         d="M 14.12,18.82 5.88,21.18"
         id="path3834"
         inkscape:connector-curvature="0"
         style="fill:#2a4879;fill-opacity:1" />
      <path
         d="m 16.54,20.96 -1.08,7.08"
         id="path3836"
         inkscape:connector-curvature="0"
         style="fill:#2a4879;fill-opacity:1" />
      <path
         d="m 29.65,14.97 -1.3,11.06"
         id="path3838"
         inkscape:connector-curvature="0"
         style="fill:#2a4879;fill-opacity:1" />
      <path
         d="m 18.6,5.97 -1.2,9.06"
         id="path3840"
         inkscape:connector-curvature="0"
         style="fill:#2a4879;fill-opacity:1" />
      <path
         d="M 25.88,26.88 19.12,20.12"
         id="path3842"
         inkscape:connector-curvature="0"
         style="fill:#2a4879;fill-opacity:1" />
      <path
         d="M 27.68,10.1 21.32,4.9"
         id="path3844"
         inkscape:connector-curvature="0"
         style="fill:#2a4879;fill-opacity:1" />
      <path
         d="M 14.32,16.66 9.68,14.34"
         id="path3846"
         inkscape:connector-curvature="0"
         style="fill:#2a4879;fill-opacity:1" />
      <path
         d="M 40.2,18.11 36.8,5.89"
         id="path3848"
         inkscape:connector-curvature="0"
         style="fill:#2a4879;fill-opacity:1" />
      <path
         d="m 34.33,5.5 -2.66,4"
         id="path3850"
         inkscape:connector-curvature="0"
         style="fill:#2a4879;fill-opacity:1" />
      <path
         d="m 49.68,13.9 -6.36,5.2"
         id="path3852"
         inkscape:connector-curvature="0"
         style="fill:#2a4879;fill-opacity:1" />
      <path
         d="M 47.88,38.88 44.12,35.12"
         id="path3854"
         inkscape:connector-curvature="0"
         style="fill:#2a4879;fill-opacity:1" />
      <path
         d="M 52.24,25.82 43.76,22.18"
         id="path3856"
         inkscape:connector-curvature="0"
         style="fill:#2a4879;fill-opacity:1" />
      <path
         d="m 41.75,30.02 -0.5,-6.04"
         id="path3858"
         inkscape:connector-curvature="0"
         style="fill:#2a4879;fill-opacity:1" />
      <path
         d="m 47.16,41.95 -6.32,2.1"
         id="path3860"
         inkscape:connector-curvature="0"
         style="fill:#2a4879;fill-opacity:1" />
      <path
         d="M 39.12,32.18 30.88,29.82"
         id="path3862"
         inkscape:connector-curvature="0"
         style="fill:#2a4879;fill-opacity:1" />
      <path
         d="m 38.45,22.57 -7.9,4.86"
         id="path3864"
         inkscape:connector-curvature="0"
         style="fill:#2a4879;fill-opacity:1" />
      <path
         d="m 27.28,13.26 -7.56,3.48"
         id="path3866"
         inkscape:connector-curvature="0"
         style="fill:#2a4879;fill-opacity:1" />
      <path
         d="M 38.68,19.1 32.32,13.9"
         id="path3868"
         inkscape:connector-curvature="0"
         style="fill:#2a4879;fill-opacity:1" />
    </g>
    <path
       style="opacity:1;fill:#2a4879;fill-opacity:1;stroke:#000000;stroke-width:0;stroke-miterlimit:4;stroke-dasharray:none;stroke-opacity:1"
       d=""
       id="path4431"
       inkscape:connector-curvature="0"
       transform="translate(0.15889781,0.31779606)" />
    <path
       style="opacity:1;fill:#2a4879;fill-opacity:1;stroke:#000000;stroke-width:0;stroke-miterlimit:4;stroke-dasharray:none;stroke-opacity:1"
       d="m 40.997311,59.501017 c -0.722052,-0.175783 -1.394903,-0.567234 -1.948797,-1.13377 -0.77407,-0.791736 -1.060934,-1.519991 -1.05965,-2.690107 0.0013,-1.201083 0.353135,-2.006027 1.26306,-2.889835 l 0.58249,-0.565771 -0.374376,-1.240077 -0.374375,-1.240076 -0.792058,-0.181593 c -1.817736,-0.416753 -3.018611,-1.597761 -3.333982,-3.278824 l -0.105532,-0.562538 -2.728179,-0.644741 -2.728177,-0.644741 -0.235512,0.340729 c -1.177175,1.703097 -3.295239,2.287954 -5.047828,1.393849 -0.693603,-0.353849 -1.696677,-1.390155 -1.867971,-1.929855 -0.107137,-0.337558 -0.170852,-0.350703 -1.247746,-0.257407 -0.624163,0.05407 -1.838477,0.145749 -2.698474,0.203724 -1.231122,0.08299 -1.580338,0.159336 -1.642179,0.359014 -0.632425,2.041969 -2.201322,3.171706 -4.158214,2.994261 -0.509633,-0.04621 -1.145124,-0.197023 -1.412203,-0.335134 -0.6992,-0.36157 -1.4755959,-1.18697 -1.8109945,-1.925298 C 8.9430546,44.53855 8.8887494,43.113561 9.1642118,42.323368 9.340183,41.818577 9.3221773,41.769425 8.7917237,41.306543 8.4851548,41.039026 7.7550777,40.397344 7.1693297,39.880582 L 6.1043337,38.941016 5.5534029,39.203737 C 3.707996,40.083749 1.4978753,39.393304 0.44914286,37.609157 0.07343077,36.969981 0.00154812,36.669061 0.00154812,35.735403 c 0,-1.687208 0.79452025,-2.952955 2.26430088,-3.607251 L 2.9411668,31.827523 V 29.165608 26.503694 L 2.4247473,26.31648 C 0.45288772,25.601638 -0.59297422,23.167485 0.23989556,21.231426 0.62693182,20.331736 1.554307,19.387936 2.3974673,19.035641 c 0.2934206,-0.1226 0.8966129,-0.222907 1.340427,-0.222907 H 4.544829 L 4.9953834,17.819619 5.4459378,16.826505 5.005833,16.34981 C 3.7057415,14.941629 3.5797004,12.90114 4.6974932,11.358072 5.8785638,9.7276511 8.3455802,9.2832187 9.9542552,10.411067 L 10.373064,10.704696 13.235723,7.9961058 16.098382,5.2875159 16.0152,4.0654848 c -0.09567,-1.405484 0.0937,-2.0170405 0.91382,-2.9511054 0.80904,-0.92144558 1.627144,-1.27972605 2.934816,-1.28527419 0.938703,-0.003983 1.231124,0.0651329 1.873754,0.44287558 0.779956,0.4584623 1.638376,1.47031721 1.802657,2.12486381 l 0.09215,0.3671601 h 4.668141 4.668142 L 33.189283,2.236029 c 0.313734,-0.75087 1.158763,-1.66209068 1.884889,-2.03253214 2.52872,-1.29005646 5.365055,0.36548737 5.657807,3.30241244 l 0.106434,1.0677502 4.476276,2.8159929 c 4.339273,2.7298046 4.484614,2.8067816 4.748654,2.5150211 0.149806,-0.1655344 0.634293,-0.481323 1.076637,-0.7017524 2.837152,-1.4138126 6.177561,1.1183379 5.534961,4.1956989 -0.217751,1.042791 -0.791803,1.95276 -1.535989,2.4348 -0.303545,0.196621 -0.552787,0.469801 -0.553869,0.607068 -0.0017,0.213108 1.107122,5.919844 1.346072,6.927914 0.05496,0.231874 0.250993,0.381394 0.598316,0.456362 2.125937,0.458873 3.562543,2.55819 3.140808,4.589679 -0.366679,1.76628 -1.782196,3.033533 -3.501779,3.134995 -0.421972,0.0249 -0.70576,0.133885 -0.798153,0.306522 -0.07885,0.147337 -0.644833,1.675792 -1.257734,3.396565 l -1.114365,3.128679 0.466519,0.392551 c 0.256586,0.215903 0.658526,0.784997 0.8932,1.264654 0.844175,1.725432 0.237187,3.868713 -1.380422,4.874272 -0.84562,0.525667 -0.876902,0.622829 -0.674936,2.096336 0.06654,0.485466 0.193022,0.779148 0.357521,0.83014 1.318262,0.408645 2.360114,1.286041 2.812367,2.368437 0.362075,0.866569 0.286311,2.335922 -0.166527,3.229554 -0.693485,1.368526 -1.891286,2.111151 -3.419938,2.120328 -1.062566,0.0064 -1.960545,-0.348708 -2.705458,-1.069818 l -0.556145,-0.538375 -1.430084,0.587222 -1.430085,0.58722 -0.09304,0.970436 c -0.153873,1.604908 -1.178144,2.854085 -2.714281,3.310268 -0.884639,0.26271 -1.211151,0.278803 -1.959627,0.09659 z m 1.817533,-2.048549 c 0.583357,-0.312856 1.122085,-1.147994 1.122085,-1.739455 0,-0.997109 -1.080015,-2.101551 -2.055071,-2.101551 -1.517234,0 -2.530527,1.679748 -1.830222,3.033986 0.517636,1.000998 1.737309,1.357215 2.763208,0.80702 z m 10.175563,-4.126225 c 0.608563,-0.445475 0.985711,-1.282805 0.869865,-1.931242 -0.270507,-1.514131 -1.864262,-2.229588 -3.104627,-1.393705 -0.647712,0.436492 -0.934196,0.957553 -0.936542,1.703387 -0.0051,1.62125 1.865252,2.577603 3.171304,1.62156 z m -6.350285,-0.54893 c 1.258004,-0.511772 1.269265,-0.521463 1.269265,-1.09231 0,-1.294292 0.819647,-2.732139 1.913519,-3.356747 0.565476,-0.322891 0.626355,-0.419508 0.625881,-0.993277 -7.94e-4,-1.054695 -0.178602,-1.82733 -0.420346,-1.82733 -0.434057,0 -1.775346,-0.790813 -2.147225,-1.265988 l -0.377196,-0.481967 -2.299964,0.768641 c -1.804951,0.603208 -2.310667,0.83406 -2.34969,1.0726 -0.199876,1.221818 -0.578386,2.062945 -1.252774,2.78392 l -0.727731,0.778003 0.361875,1.270913 c 0.267799,0.940511 0.431257,1.270912 0.628754,1.270912 0.652562,0 1.907015,0.517792 2.479929,1.023626 0.343942,0.30367 0.715594,0.555105 0.825893,0.558742 0.110298,0.0036 0.771712,-0.225744 1.46981,-0.509738 z m -6.659423,-5.407789 c 0.341888,-0.22967 0.623237,-0.601808 0.767087,-1.014617 0.204417,-0.586621 0.198491,-0.727006 -0.05916,-1.401648 -0.233286,-0.61085 -0.407827,-0.804907 -0.942213,-1.047572 -0.360737,-0.163812 -0.788088,-0.299409 -0.949668,-0.301328 -0.526395,-0.0062 -1.405427,0.516163 -1.710612,1.016631 -1.121803,1.839629 1.102913,3.952111 2.894562,2.748534 z M 13.89882,45.406663 c 0.610422,-0.360585 0.95972,-1.019087 0.95972,-1.80928 0,-0.565832 -0.09552,-0.765014 -0.6169,-1.286395 -0.544279,-0.544279 -0.706184,-0.616899 -1.375361,-0.616899 -1.431576,0 -2.351467,1.203754 -1.971503,2.579873 0.330953,1.19861 1.894464,1.788145 3.004044,1.132701 z m 12.89201,-0.939568 c 0.998836,-0.516518 1.396962,-1.918211 0.801391,-2.821481 -0.884446,-1.341389 -2.567473,-1.325768 -3.474688,0.03225 -1.12549,1.684756 0.841142,3.736676 2.673297,2.789231 z m 8.86078,-1.028528 c 0.195224,-0.264055 0.304654,-0.567948 0.243179,-0.675318 -0.474396,-0.828565 -5.552938,-8.976773 -5.690097,-9.129408 -0.110041,-0.122457 -0.387309,-0.160333 -0.746733,-0.102006 l -0.571702,0.09277 -0.640495,2.723828 -0.640496,2.72383 0.70307,0.612898 c 0.769443,0.670759 1.240825,1.463457 1.411613,2.373836 0.06072,0.323663 0.156069,0.593638 0.211889,0.599944 0.05582,0.0063 1.209805,0.283863 2.564414,0.616793 1.354608,0.332928 2.538856,0.613786 2.631664,0.624127 0.09281,0.01034 0.32847,-0.197244 0.523694,-0.461298 z m 15.970312,0.102108 c 0.809897,-0.338396 1.213313,-0.960271 1.213313,-1.870347 0,-0.661329 -0.08002,-0.862712 -0.543935,-1.368933 -0.505247,-0.55132 -0.607829,-0.593534 -1.442294,-0.593534 -0.834466,0 -0.937047,0.04221 -1.442295,0.593534 -0.894688,0.976274 -0.719903,2.344382 0.395544,3.096081 0.618165,0.416582 1.078642,0.452819 1.819667,0.143199 z M 46.955997,41.44511 c 0,-0.296495 0.117755,-0.83338 0.261679,-1.19308 l 0.261678,-0.653998 -1.279328,-1.279327 -1.279327,-1.279328 -0.653998,0.261678 c -0.3597,0.143924 -0.896586,0.261679 -1.19308,0.261679 h -0.539083 l -0.789976,2.364448 -0.789976,2.364449 0.636256,0.636258 0.636258,0.636256 2.364449,-0.789976 2.364448,-0.789976 z m -27.648305,0.805124 c 2.578424,-0.158009 2.631693,-0.174012 2.834714,-0.851638 0.364398,-1.216252 1.986556,-2.564676 3.085314,-2.564676 0.229432,0 0.465388,-0.07805 0.524346,-0.173449 0.05896,-0.0954 0.381797,-1.362324 0.717419,-2.815395 0.610958,-2.645127 0.614944,-3.029212 0.02922,-2.814591 -0.108771,0.03986 -2.448416,2.04988 -5.199214,4.466724 -4.454799,3.913975 -4.983286,4.428197 -4.835274,4.704758 0.133665,0.249758 0.280397,0.293898 0.75006,0.225635 0.321137,-0.04668 1.263177,-0.126491 2.09342,-0.177368 z m 19.531959,-0.536465 c 0.331783,-0.09274 0.489415,-0.42079 1.145689,-2.384269 l 0.760975,-2.27673 -0.527665,-0.499786 c -0.635715,-0.602124 -1.131041,-1.539968 -1.277204,-2.41824 l -0.107718,-0.647269 -3.208464,-0.906678 c -1.764653,-0.498674 -3.260442,-0.904569 -3.323973,-0.90199 -0.06353,0.0026 -0.230267,0.17983 -0.370525,0.393892 -0.250303,0.38201 -0.201197,0.475862 2.657884,5.079854 2.785959,4.486243 2.933671,4.690176 3.389593,4.679705 0.262182,-0.006 0.649816,-0.05934 0.861408,-0.118489 z M 10.936253,40.234485 c 0.190891,-0.103631 0.704596,-0.269088 1.141566,-0.367685 l 0.794492,-0.179267 0.56713,-2.211304 0.567131,-2.211303 -0.799064,-0.734741 -0.799064,-0.734741 -2.331108,0.778837 -2.3311078,0.778837 -0.094891,0.826735 c -0.05219,0.454705 -0.1143935,0.975977 -0.1382299,1.158383 -0.031836,0.243621 0.3573153,0.694353 1.4661954,1.698214 0.8302436,0.751613 1.5321103,1.371043 1.5597043,1.376511 0.02759,0.0055 0.206355,-0.07485 0.397246,-0.178476 z m 9.344083,-4.280103 c 3.096314,-2.718092 5.033084,-4.525751 4.944214,-4.614621 -0.19844,-0.19844 -5.307623,0.60763 -5.469813,0.862966 -0.06841,0.107696 -0.125478,0.288041 -0.126815,0.400765 -0.0042,0.354632 -0.587594,1.36971 -1.05694,1.839057 -0.55113,0.551129 -1.370623,0.975855 -2.158776,1.118846 -0.6587,0.119504 -0.543184,-0.137954 -1.311289,2.922585 -0.394444,1.571679 -0.407184,1.938923 -0.06726,1.938923 0.086,0 2.447004,-2.010834 5.246678,-4.468521 z m 30.061686,1.860585 0.976047,-0.199096 1.174136,-3.298262 1.174134,-3.29826 -0.556943,-0.581592 c -0.756753,-0.790245 -1.054865,-1.4359 -1.169534,-2.53299 l -0.09684,-0.926529 -3.406104,-1.471106 -3.406105,-1.471106 -0.608825,0.550037 c -0.334854,0.302521 -0.768966,0.600863 -0.964694,0.662985 -0.346136,0.10986 -0.353013,0.154846 -0.251482,1.644991 0.193359,2.837849 0.185354,2.813125 1.013198,3.129281 1.041083,0.397593 2.023306,1.438678 2.32922,2.468803 0.312717,1.053032 0.30516,1.455755 -0.04595,2.448788 l -0.280911,0.794492 1.268518,1.301911 c 1.085813,1.114394 1.312276,1.278494 1.572306,1.139329 0.167083,-0.08942 0.743006,-0.252173 1.279832,-0.361676 z M 4.9323324,37.400784 C 6.0588465,36.70456 6.1762628,35.0211 5.1580644,34.164342 3.7739162,32.999659 1.8311119,33.932711 1.8294726,35.762935 c -0.00138,1.537332 1.7606153,2.467402 3.1028598,1.637849 z M 43.778031,35.489665 c 0.131091,-0.06728 0.417108,-0.313414 0.635593,-0.546964 0.32404,-0.346384 0.397246,-0.585583 0.397246,-1.297987 0,-0.805581 -0.04606,-0.915556 -0.593534,-1.417283 -0.514008,-0.471053 -0.702432,-0.543935 -1.40625,-0.543935 -0.708617,0 -0.880311,0.0676 -1.340438,0.527722 -0.314405,0.314406 -0.572251,0.765088 -0.637884,1.114937 -0.303561,1.61812 1.469785,2.920772 2.945267,2.16351 z M 16.687494,33.520389 c 0.301158,-0.125833 0.691869,-0.465478 0.868244,-0.754767 1.247584,-2.046284 -1.468064,-4.193595 -3.16167,-2.499988 -0.61465,0.61465 -0.747386,1.321481 -0.407624,2.170629 0.454607,1.136175 1.536853,1.570558 2.70105,1.084126 z M 9.6943447,32.739512 11.918921,32.0009 l 0.04572,-0.67512 c 0.09959,-1.470536 1.301932,-2.968473 2.67814,-3.336552 0.465689,-0.124554 0.781635,-0.313131 0.863473,-0.51538 0.07098,-0.175424 0.283546,-1.389691 0.472361,-2.698371 l 0.3433,-2.379418 -0.374167,-0.236303 c -0.205791,-0.129966 -0.639443,-0.507189 -0.96367,-0.838272 -0.324227,-0.331084 -0.645996,-0.604081 -0.715042,-0.60666 -0.06905,-0.0026 -1.5735,0.404496 -3.343229,0.904611 l -3.2176911,0.909301 v 0.530577 c 0,1.2018 -0.9065304,2.465163 -2.2682147,3.16104 l -0.7586806,0.387717 0.043638,2.577438 0.043638,2.577437 0.8386821,0.449446 c 0.4612752,0.247195 0.9945621,0.660284 1.1850818,0.917976 0.1905199,0.257692 0.4208989,0.441356 0.5119535,0.408143 0.091055,-0.03321 1.1666131,-0.392762 2.3901307,-0.798998 z M 30.167387,31.16107 c 1.398283,-1.318751 0.570291,-3.450031 -1.340321,-3.450031 -0.671845,0 -0.869953,0.07819 -1.37817,0.543934 -0.53389,0.489275 -0.593534,0.623828 -0.593534,1.338984 0,1.301949 0.7832,2.082572 2.094089,2.087197 0.534233,0.0019 0.772261,-0.09976 1.217936,-0.520084 z m 9.63775,0.04635 c 0.186451,-0.261846 0.664317,-0.666731 1.061926,-0.899745 L 41.589989,29.884006 41.486756,28.5989 c -0.222938,-2.775249 -0.281098,-3.112438 -0.536846,-3.112438 -0.134585,0 -0.630331,-0.217636 -1.101658,-0.483637 l -0.856959,-0.483637 -3.178572,1.953446 -3.178571,1.953447 0.104812,0.715042 c 0.05765,0.393274 0.116001,0.720771 0.129674,0.727774 0.14765,0.07561 6.270718,1.802326 6.409699,1.807546 0.10329,0.0039 0.340352,-0.207183 0.526802,-0.469028 z m -17.48173,-1.451587 c 1.269057,-0.186278 2.370299,-0.395783 2.447201,-0.465566 0.0769,-0.06978 0.260995,-0.484808 0.409093,-0.922277 l 0.269269,-0.795398 -2.792568,-2.78686 c -2.195893,-2.191406 -2.843493,-2.753773 -3.030913,-2.632004 -0.131091,0.08517 -0.505769,0.228904 -0.832618,0.319408 -0.412644,0.114259 -0.617353,0.27208 -0.669794,0.516378 -0.144817,0.674623 -0.722133,4.569256 -0.71789,4.842966 0.0024,0.151695 0.279559,0.445502 0.616018,0.652905 0.33646,0.207402 0.781438,0.652381 0.98884,0.98884 0.228965,0.371438 0.500618,0.613424 0.69154,0.616019 0.172944,0.0024 1.352763,-0.148135 2.621822,-0.334411 z m 34.211317,-0.19698 c 1.147444,-0.488921 1.628978,-1.592506 1.172042,-2.686108 -0.627016,-1.500657 -2.748652,-1.633924 -3.606777,-0.22655 -0.59432,0.974714 -0.219548,2.287638 0.810721,2.840176 0.647921,0.347484 0.947258,0.360844 1.624014,0.07248 z m -21.178303,-4.967574 2.621822,-1.619002 0.0013,-1.007206 c 6.36e-4,-0.553962 0.05322,-1.25747 0.116765,-1.563349 l 0.11553,-0.556145 -2.496921,-2.01343 c -2.415663,-1.947907 -2.509956,-2.006244 -2.897484,-1.792594 -0.220309,0.121459 -0.65338,0.320287 -0.96238,0.441836 l -0.561817,0.221 -0.537593,4.661163 c -0.381255,3.305652 -0.485792,4.678429 -0.359464,4.720538 0.09797,0.03266 0.413943,0.223322 0.702162,0.423703 l 0.524037,0.364328 0.556144,-0.330922 c 0.305879,-0.182005 1.735964,-1.05947 3.177966,-1.94992 z m -7.791329,1.423139 c 0.396196,-0.146596 0.740299,-0.279756 0.764678,-0.295911 0.02438,-0.01616 0.29327,-2.126036 0.597538,-4.688622 0.55259,-4.653974 0.554581,-4.904945 0.03899,-4.915985 -0.06251,-0.0013 -0.364605,-0.222779 -0.671334,-0.492091 l -0.55769,-0.489658 -3.023052,1.391301 -3.023051,1.391303 v 0.851341 c 0,0.468238 -0.109731,1.113962 -0.243846,1.434945 l -0.243845,0.583605 2.74479,2.748156 c 1.509636,1.511486 2.778919,2.748157 2.820631,2.748157 0.04171,0 0.4,-0.119943 0.796195,-0.266541 z m 25.461544,-1.04437 c 0.200609,-0.196637 0.543281,-0.473352 0.761493,-0.614921 l 0.396751,-0.257401 -0.699462,-3.556158 c -0.384706,-1.955889 -0.729081,-3.638512 -0.76528,-3.739163 -0.0362,-0.100653 -0.329004,-0.231029 -0.650677,-0.289724 -0.321674,-0.0587 -0.813598,-0.239918 -1.093165,-0.402717 l -0.508301,-0.295997 -2.510767,2.061893 c -1.38092,1.13404 -2.482922,2.148408 -2.448891,2.254152 0.03403,0.105743 0.105534,0.650042 0.158898,1.209551 l 0.09703,1.017291 3.416314,1.474579 c 1.878972,0.811019 3.43094,1.479429 3.448816,1.485358 0.01788,0.0059 0.196636,-0.150107 0.397246,-0.346743 z M 4.8322409,24.461745 c 0.6359036,-0.328839 1.0220614,-1.000721 1.0220614,-1.778303 0,-1.176518 -0.8403767,-2.016894 -2.0168944,-2.016894 -1.2098903,0 -2.0085293,0.846718 -2.0085293,2.129447 0,0.557331 0.097677,0.759855 0.6168993,1.279077 0.5192228,0.519222 0.7217451,0.616899 1.2790774,0.616899 0.3641979,0 0.8625214,-0.103602 1.1073856,-0.230226 z M 42.768828,23.478368 c 0.718043,-0.340734 1.235309,-1.317946 1.094613,-2.067925 -0.139616,-0.744215 -0.937418,-1.6109 -1.596725,-1.734587 -1.674984,-0.314229 -2.996302,1.454638 -2.21508,2.965354 0.30063,0.581355 1.10587,1.095976 1.716152,1.096777 0.248975,3.17e-4 0.699443,-0.116501 1.00104,-0.259619 z m -32.123824,-3.69894 3.175236,-0.924245 0.103434,-0.50574 c 0.103429,-0.505708 0.103337,-0.505787 -1.485291,-1.302999 l -1.588726,-0.79726 -0.339309,0.318523 C 9.93976,17.103341 8.7948869,17.534335 7.9327541,17.538058 l -0.8082008,0.0035 -0.4181375,0.969083 -0.4181378,0.969083 0.4981655,0.6199 c 0.273991,0.340945 0.5398263,0.616336 0.5907452,0.611979 0.050919,-0.0044 1.5214357,-0.423831 3.2678153,-0.932164 z m 8.486216,0.380914 c 0.734453,-0.663534 0.932572,-1.387198 0.598603,-2.186499 -0.645901,-1.54586 -2.754922,-1.781705 -3.596024,-0.402134 -0.604138,0.990906 -0.350954,2.132798 0.617609,2.785513 0.823468,0.554935 1.620642,0.488986 2.379812,-0.19688 z M 39.752196,18.37239 C 39.884919,18.28795 39.521317,16.761804 38.464958,12.96947 37.655244,10.062589 36.964221,7.6569912 36.929352,7.6236974 36.894484,7.5904036 36.546026,7.5380399 36.154999,7.5073339 L 35.444045,7.4515047 34.58077,8.7050672 c -0.713253,1.0357173 -0.830633,1.2980458 -0.675448,1.5095338 0.623854,0.850192 0.85381,1.666694 0.762178,2.706249 -0.05068,0.575017 -0.11305,1.158468 -0.138588,1.296559 -0.02957,0.1599 0.847942,0.981832 2.416492,2.263436 1.354608,1.1068 2.498676,2.011658 2.542373,2.010795 0.0437,-7.95e-4 0.162686,-0.05453 0.264419,-0.11925 z m 6.987604,-1.8894 2.460018,-2.011945 -0.127602,-0.649601 c -0.07018,-0.35728 -0.119924,-0.940987 -0.110539,-1.297127 L 48.978738,11.87679 44.66111,9.154486 C 42.286415,7.6572186 40.218185,6.3841002 40.065042,6.3253341 39.7746,6.2138809 38.852184,6.945661 38.852184,7.287531 c 0,0.095598 0.634033,2.4597364 1.408961,5.25364 l 1.40896,5.079825 0.987126,0.258904 c 0.542919,0.142397 1.067255,0.339034 1.165192,0.436971 0.09794,0.09794 0.240907,0.178066 0.317714,0.178066 0.07681,0 1.246654,-0.905376 2.599663,-2.011947 z m -21.291149,-2.321696 1.45346,-0.66008 0.08007,-0.959177 c 0.04404,-0.527547 0.126607,-1.102336 0.183482,-1.277309 0.08605,-0.26475 -0.313921,-0.660161 -2.383669,-2.3564684 L 22.29492,6.8699228 21.526616,7.2004384 c -0.422567,0.1817835 -0.872223,0.3305154 -0.999235,0.3305154 -0.272315,0 -0.281777,0.047738 -0.833787,4.2060682 l -0.421239,3.17323 0.372801,0.243084 c 0.205042,0.133696 0.584874,0.430714 0.844072,0.660039 l 0.47127,0.416954 1.517347,-0.704478 c 0.834541,-0.387463 2.171404,-1.001514 2.970806,-1.364557 z m -10.00627,1.47047 c 0.300491,-0.263835 0.863606,-0.564553 1.251367,-0.668263 0.604421,-0.161658 0.717013,-0.257592 0.789061,-0.672314 0.162947,-0.937954 0.8703,-6.3671192 0.870893,-6.6843745 C 18.35402,7.4026306 18.153056,7.1770473 17.802468,6.988243 l -0.551835,-0.2971825 -2.867628,2.7455625 -2.867629,2.745562 0.107779,0.574279 c 0.05928,0.315853 0.114323,0.860295 0.122323,1.209871 0.01454,0.635345 0.0151,0.635886 1.444629,1.384569 0.786547,0.411937 1.49215,0.751582 1.568007,0.754768 0.07586,0.0032 0.383777,-0.210075 0.684267,-0.473908 z m -6.8818999,-0.05719 c 1.0789107,-0.450798 1.5927429,-1.646784 1.1562905,-2.691361 -0.346312,-0.828841 -1.0973059,-1.25553 -2.0631425,-1.172206 -2.0722427,0.178774 -2.5526524,2.927371 -0.6617956,3.786371 0.7713442,0.350415 0.8996309,0.356728 1.5686476,0.0772 z M 31.777636,14.495196 c 0.86671,-0.3949 1.35472,-1.941218 0.887912,-2.813456 -0.463876,-0.866763 -1.6801,-1.241212 -2.682666,-0.825936 -1.382977,0.572849 -1.527899,2.870232 -0.225629,3.576836 0.527808,0.286386 1.465414,0.315416 2.020383,0.06256 z m 22.231082,-0.145645 c 1.377807,-1.083783 1.003059,-3.17294 -0.65108,-3.62967 -1.645778,-0.454421 -3.130427,1.339514 -2.352909,2.843069 0.574519,1.110997 2.087821,1.507258 3.003989,0.786601 z M 29.118264,9.1596615 c 0.321521,-0.2106682 0.757421,-0.2780721 1.798289,-0.2780721 h 1.373895 l 0.813021,-1.2227416 0.81302,-1.2227417 -0.432047,-0.8728399 -0.432046,-0.8728398 -4.716517,-0.00982 c -4.664162,-0.00971 -4.717698,-0.0061 -4.823005,0.3256939 -0.06375,0.2008646 -0.02022,0.4217482 0.108465,0.5503867 0.636325,0.6360794 4.694659,3.863495 4.86832,3.8715616 0.112318,0.00522 0.39519,-0.1156465 0.628605,-0.2685871 z m -8.47906,-3.5967057 c 0.689589,-0.2881283 1.210861,-1.143021 1.210861,-1.9858238 0,-1.4747336 -1.785877,-2.4188745 -3.07194,-1.6240443 -1.471744,0.9095881 -1.18234,3.1711621 0.469075,3.6656167 0.655523,0.1962723 0.802967,0.1903673 1.392004,-0.055749 z M 37.944096,5.4410309 c 0.483475,-0.2587477 0.906858,-1.1195832 0.907493,-1.8451435 0.0013,-1.4348285 -1.685072,-2.3953523 -3.006066,-1.7122389 -0.737846,0.3815547 -1.196346,1.4542497 -0.974203,2.2792231 0.359428,1.334814 1.82659,1.945098 3.072776,1.2781593 z"
       id="path4433"
       inkscape:connector-curvature="0"
       transform="translate(0.15889781,0.31779606)" />
    <path
       style="opacity:1;fill:#2a4879;fill-opacity:1;stroke:#000000;stroke-width:0;stroke-miterlimit:4;stroke-dasharray:none;stroke-opacity:1"
       d="m 40.997311,59.501017 c -0.722052,-0.175783 -1.394903,-0.567234 -1.948797,-1.13377 -0.77407,-0.791736 -1.060934,-1.519991 -1.05965,-2.690107 0.0013,-1.201083 0.353135,-2.006027 1.26306,-2.889835 l 0.58249,-0.565771 -0.374376,-1.240077 -0.374375,-1.240076 -0.792058,-0.181593 c -1.817736,-0.416753 -3.018611,-1.597761 -3.333982,-3.278824 l -0.105532,-0.562538 -2.728179,-0.644741 -2.728177,-0.644741 -0.235512,0.340729 c -1.177175,1.703097 -3.295239,2.287954 -5.047828,1.393849 -0.693603,-0.353849 -1.696677,-1.390155 -1.867971,-1.929855 -0.107137,-0.337558 -0.170852,-0.350703 -1.247746,-0.257407 -0.624163,0.05407 -1.838477,0.145749 -2.698474,0.203724 -1.231122,0.08299 -1.580338,0.159336 -1.642179,0.359014 -0.632425,2.041969 -2.201322,3.171706 -4.158214,2.994261 -0.509633,-0.04621 -1.145124,-0.197023 -1.412203,-0.335134 -0.6992,-0.36157 -1.4755959,-1.18697 -1.8109945,-1.925298 C 8.9430546,44.53855 8.8887494,43.113561 9.1642118,42.323368 9.340183,41.818577 9.3221773,41.769425 8.7917237,41.306543 8.4851548,41.039026 7.7550777,40.397344 7.1693297,39.880582 L 6.1043337,38.941016 5.5534029,39.203737 C 3.707996,40.083749 1.4978753,39.393304 0.44914286,37.609157 0.07343077,36.969981 0.00154812,36.669061 0.00154812,35.735403 c 0,-1.687208 0.79452025,-2.952955 2.26430088,-3.607251 L 2.9411668,31.827523 V 29.165608 26.503694 L 2.4247473,26.31648 C 0.45288772,25.601638 -0.59297422,23.167485 0.23989556,21.231426 0.62693182,20.331736 1.554307,19.387936 2.3974673,19.035641 c 0.2934206,-0.1226 0.8966129,-0.222907 1.340427,-0.222907 H 4.544829 L 4.9953834,17.819619 5.4459378,16.826505 5.005833,16.34981 C 3.7057415,14.941629 3.5797004,12.90114 4.6974932,11.358072 5.8785638,9.7276511 8.3455802,9.2832187 9.9542552,10.411067 L 10.373064,10.704696 13.235723,7.9961058 16.098382,5.2875159 16.0152,4.0654848 c -0.09567,-1.405484 0.0937,-2.0170405 0.91382,-2.9511054 0.80904,-0.92144558 1.627144,-1.27972605 2.934816,-1.28527419 0.938703,-0.003983 1.231124,0.0651329 1.873754,0.44287558 0.779956,0.4584623 1.638376,1.47031721 1.802657,2.12486381 l 0.09215,0.3671601 h 4.668141 4.668142 L 33.189283,2.236029 c 0.313734,-0.75087 1.158763,-1.66209068 1.884889,-2.03253214 2.52872,-1.29005646 5.365055,0.36548737 5.657807,3.30241244 l 0.106434,1.0677502 4.476276,2.8159929 c 4.339273,2.7298046 4.484614,2.8067816 4.748654,2.5150211 0.149806,-0.1655344 0.634293,-0.481323 1.076637,-0.7017524 2.837152,-1.4138126 6.177561,1.1183379 5.534961,4.1956989 -0.217751,1.042791 -0.791803,1.95276 -1.535989,2.4348 -0.303545,0.196621 -0.552787,0.469801 -0.553869,0.607068 -0.0017,0.213108 1.107122,5.919844 1.346072,6.927914 0.05496,0.231874 0.250993,0.381394 0.598316,0.456362 2.125937,0.458873 3.562543,2.55819 3.140808,4.589679 -0.366679,1.76628 -1.782196,3.033533 -3.501779,3.134995 -0.421972,0.0249 -0.70576,0.133885 -0.798153,0.306522 -0.07885,0.147337 -0.644833,1.675792 -1.257734,3.396565 l -1.114365,3.128679 0.466519,0.392551 c 0.256586,0.215903 0.658526,0.784997 0.8932,1.264654 0.844175,1.725432 0.237187,3.868713 -1.380422,4.874272 -0.84562,0.525667 -0.876902,0.622829 -0.674936,2.096336 0.06654,0.485466 0.193022,0.779148 0.357521,0.83014 1.318262,0.408645 2.360114,1.286041 2.812367,2.368437 0.362075,0.866569 0.286311,2.335922 -0.166527,3.229554 -0.693485,1.368526 -1.891286,2.111151 -3.419938,2.120328 -1.062566,0.0064 -1.960545,-0.348708 -2.705458,-1.069818 l -0.556145,-0.538375 -1.430084,0.587222 -1.430085,0.58722 -0.09304,0.970436 c -0.153873,1.604908 -1.178144,2.854085 -2.714281,3.310268 -0.884639,0.26271 -1.211151,0.278803 -1.959627,0.09659 z m 1.817533,-2.048549 c 0.583357,-0.312856 1.122085,-1.147994 1.122085,-1.739455 0,-0.997109 -1.080015,-2.101551 -2.055071,-2.101551 -1.517234,0 -2.530527,1.679748 -1.830222,3.033986 0.517636,1.000998 1.737309,1.357215 2.763208,0.80702 z m 10.175563,-4.126225 c 0.608563,-0.445475 0.985711,-1.282805 0.869865,-1.931242 -0.270507,-1.514131 -1.864262,-2.229588 -3.104627,-1.393705 -0.647712,0.436492 -0.934196,0.957553 -0.936542,1.703387 -0.0051,1.62125 1.865252,2.577603 3.171304,1.62156 z m -6.350285,-0.54893 c 1.258004,-0.511772 1.269265,-0.521463 1.269265,-1.09231 0,-1.294292 0.819647,-2.732139 1.913519,-3.356747 0.565476,-0.322891 0.626355,-0.419508 0.625881,-0.993277 -7.94e-4,-1.054695 -0.178602,-1.82733 -0.420346,-1.82733 -0.434057,0 -1.775346,-0.790813 -2.147225,-1.265988 l -0.377196,-0.481967 -2.299964,0.768641 c -1.804951,0.603208 -2.310667,0.83406 -2.34969,1.0726 -0.199876,1.221818 -0.578386,2.062945 -1.252774,2.78392 l -0.727731,0.778003 0.361875,1.270913 c 0.267799,0.940511 0.431257,1.270912 0.628754,1.270912 0.652562,0 1.907015,0.517792 2.479929,1.023626 0.343942,0.30367 0.715594,0.555105 0.825893,0.558742 0.110298,0.0036 0.771712,-0.225744 1.46981,-0.509738 z m -6.659423,-5.407789 c 0.341888,-0.22967 0.623237,-0.601808 0.767087,-1.014617 0.204417,-0.586621 0.198491,-0.727006 -0.05916,-1.401648 -0.233286,-0.61085 -0.407827,-0.804907 -0.942213,-1.047572 -0.360737,-0.163812 -0.788088,-0.299409 -0.949668,-0.301328 -0.526395,-0.0062 -1.405427,0.516163 -1.710612,1.016631 -1.121803,1.839629 1.102913,3.952111 2.894562,2.748534 z M 13.89882,45.406663 c 0.610422,-0.360585 0.95972,-1.019087 0.95972,-1.80928 0,-0.565832 -0.09552,-0.765014 -0.6169,-1.286395 -0.544279,-0.544279 -0.706184,-0.616899 -1.375361,-0.616899 -1.431576,0 -2.351467,1.203754 -1.971503,2.579873 0.330953,1.19861 1.894464,1.788145 3.004044,1.132701 z m 12.89201,-0.939568 c 0.998836,-0.516518 1.396962,-1.918211 0.801391,-2.821481 -0.884446,-1.341389 -2.567473,-1.325768 -3.474688,0.03225 -1.12549,1.684756 0.841142,3.736676 2.673297,2.789231 z m 8.86078,-1.028528 c 0.195224,-0.264055 0.304654,-0.567948 0.243179,-0.675318 -0.474396,-0.828565 -5.552938,-8.976773 -5.690097,-9.129408 -0.110041,-0.122457 -0.387309,-0.160333 -0.746733,-0.102006 l -0.571702,0.09277 -0.640495,2.723828 -0.640496,2.72383 0.70307,0.612898 c 0.769443,0.670759 1.240825,1.463457 1.411613,2.373836 0.06072,0.323663 0.156069,0.593638 0.211889,0.599944 0.05582,0.0063 1.209805,0.283863 2.564414,0.616793 1.354608,0.332928 2.538856,0.613786 2.631664,0.624127 0.09281,0.01034 0.32847,-0.197244 0.523694,-0.461298 z m 15.970312,0.102108 c 0.809897,-0.338396 1.213313,-0.960271 1.213313,-1.870347 0,-0.661329 -0.08002,-0.862712 -0.543935,-1.368933 -0.505247,-0.55132 -0.607829,-0.593534 -1.442294,-0.593534 -0.834466,0 -0.937047,0.04221 -1.442295,0.593534 -0.894688,0.976274 -0.719903,2.344382 0.395544,3.096081 0.618165,0.416582 1.078642,0.452819 1.819667,0.143199 z M 46.955997,41.44511 c 0,-0.296495 0.117755,-0.83338 0.261679,-1.19308 l 0.261678,-0.653998 -1.279328,-1.279327 -1.279327,-1.279328 -0.653998,0.261678 c -0.3597,0.143924 -0.896586,0.261679 -1.19308,0.261679 h -0.539083 l -0.789976,2.364448 -0.789976,2.364449 0.636256,0.636258 0.636258,0.636256 2.364449,-0.789976 2.364448,-0.789976 z m -27.648305,0.805124 c 2.578424,-0.158009 2.631693,-0.174012 2.834714,-0.851638 0.364398,-1.216252 1.986556,-2.564676 3.085314,-2.564676 0.229432,0 0.465388,-0.07805 0.524346,-0.173449 0.05896,-0.0954 0.381797,-1.362324 0.717419,-2.815395 0.610958,-2.645127 0.614944,-3.029212 0.02922,-2.814591 -0.108771,0.03986 -2.448416,2.04988 -5.199214,4.466724 -4.454799,3.913975 -4.983286,4.428197 -4.835274,4.704758 0.133665,0.249758 0.280397,0.293898 0.75006,0.225635 0.321137,-0.04668 1.263177,-0.126491 2.09342,-0.177368 z m 19.531959,-0.536465 c 0.331783,-0.09274 0.489415,-0.42079 1.145689,-2.384269 l 0.760975,-2.27673 -0.527665,-0.499786 c -0.635715,-0.602124 -1.131041,-1.539968 -1.277204,-2.41824 l -0.107718,-0.647269 -3.208464,-0.906678 c -1.764653,-0.498674 -3.260442,-0.904569 -3.323973,-0.90199 -0.06353,0.0026 -0.230267,0.17983 -0.370525,0.393892 -0.250303,0.38201 -0.201197,0.475862 2.657884,5.079854 2.785959,4.486243 2.933671,4.690176 3.389593,4.679705 0.262182,-0.006 0.649816,-0.05934 0.861408,-0.118489 z M 10.936253,40.234485 c 0.190891,-0.103631 0.704596,-0.269088 1.141566,-0.367685 l 0.794492,-0.179267 0.56713,-2.211304 0.567131,-2.211303 -0.799064,-0.734741 -0.799064,-0.734741 -2.331108,0.778837 -2.3311078,0.778837 -0.094891,0.826735 c -0.05219,0.454705 -0.1143935,0.975977 -0.1382299,1.158383 -0.031836,0.243621 0.3573153,0.694353 1.4661954,1.698214 0.8302436,0.751613 1.5321103,1.371043 1.5597043,1.376511 0.02759,0.0055 0.206355,-0.07485 0.397246,-0.178476 z m 9.344083,-4.280103 c 3.096314,-2.718092 5.033084,-4.525751 4.944214,-4.614621 -0.19844,-0.19844 -5.307623,0.60763 -5.469813,0.862966 -0.06841,0.107696 -0.125478,0.288041 -0.126815,0.400765 -0.0042,0.354632 -0.587594,1.36971 -1.05694,1.839057 -0.55113,0.551129 -1.370623,0.975855 -2.158776,1.118846 -0.6587,0.119504 -0.543184,-0.137954 -1.311289,2.922585 -0.394444,1.571679 -0.407184,1.938923 -0.06726,1.938923 0.086,0 2.447004,-2.010834 5.246678,-4.468521 z m 30.061686,1.860585 0.976047,-0.199096 1.174136,-3.298262 1.174134,-3.29826 -0.556943,-0.581592 c -0.756753,-0.790245 -1.054865,-1.4359 -1.169534,-2.53299 l -0.09684,-0.926529 -3.406104,-1.471106 -3.406105,-1.471106 -0.608825,0.550037 c -0.334854,0.302521 -0.768966,0.600863 -0.964694,0.662985 -0.346136,0.10986 -0.353013,0.154846 -0.251482,1.644991 0.193359,2.837849 0.185354,2.813125 1.013198,3.129281 1.041083,0.397593 2.023306,1.438678 2.32922,2.468803 0.312717,1.053032 0.30516,1.455755 -0.04595,2.448788 l -0.280911,0.794492 1.268518,1.301911 c 1.085813,1.114394 1.312276,1.278494 1.572306,1.139329 0.167083,-0.08942 0.743006,-0.252173 1.279832,-0.361676 z M 4.9323324,37.400784 C 6.0588465,36.70456 6.1762628,35.0211 5.1580644,34.164342 3.7739162,32.999659 1.8311119,33.932711 1.8294726,35.762935 c -0.00138,1.537332 1.7606153,2.467402 3.1028598,1.637849 z M 43.778031,35.489665 c 0.131091,-0.06728 0.417108,-0.313414 0.635593,-0.546964 0.32404,-0.346384 0.397246,-0.585583 0.397246,-1.297987 0,-0.805581 -0.04606,-0.915556 -0.593534,-1.417283 -0.514008,-0.471053 -0.702432,-0.543935 -1.40625,-0.543935 -0.708617,0 -0.880311,0.0676 -1.340438,0.527722 -0.314405,0.314406 -0.572251,0.765088 -0.637884,1.114937 -0.303561,1.61812 1.469785,2.920772 2.945267,2.16351 z M 16.687494,33.520389 c 0.301158,-0.125833 0.691869,-0.465478 0.868244,-0.754767 1.247584,-2.046284 -1.468064,-4.193595 -3.16167,-2.499988 -0.61465,0.61465 -0.747386,1.321481 -0.407624,2.170629 0.454607,1.136175 1.536853,1.570558 2.70105,1.084126 z M 9.6943447,32.739512 11.918921,32.0009 l 0.04572,-0.67512 c 0.09959,-1.470536 1.301932,-2.968473 2.67814,-3.336552 0.465689,-0.124554 0.781635,-0.313131 0.863473,-0.51538 0.07098,-0.175424 0.283546,-1.389691 0.472361,-2.698371 l 0.3433,-2.379418 -0.374167,-0.236303 c -0.205791,-0.129966 -0.639443,-0.507189 -0.96367,-0.838272 -0.324227,-0.331084 -0.645996,-0.604081 -0.715042,-0.60666 -0.06905,-0.0026 -1.5735,0.404496 -3.343229,0.904611 l -3.2176911,0.909301 v 0.530577 c 0,1.2018 -0.9065304,2.465163 -2.2682147,3.16104 l -0.7586806,0.387717 0.043638,2.577438 0.043638,2.577437 0.8386821,0.449446 c 0.4612752,0.247195 0.9945621,0.660284 1.1850818,0.917976 0.1905199,0.257692 0.4208989,0.441356 0.5119535,0.408143 0.091055,-0.03321 1.1666131,-0.392762 2.3901307,-0.798998 z M 30.167387,31.16107 c 1.398283,-1.318751 0.570291,-3.450031 -1.340321,-3.450031 -0.671845,0 -0.869953,0.07819 -1.37817,0.543934 -0.53389,0.489275 -0.593534,0.623828 -0.593534,1.338984 0,1.301949 0.7832,2.082572 2.094089,2.087197 0.534233,0.0019 0.772261,-0.09976 1.217936,-0.520084 z m 9.63775,0.04635 c 0.186451,-0.261846 0.664317,-0.666731 1.061926,-0.899745 L 41.589989,29.884006 41.486756,28.5989 c -0.222938,-2.775249 -0.281098,-3.112438 -0.536846,-3.112438 -0.134585,0 -0.630331,-0.217636 -1.101658,-0.483637 l -0.856959,-0.483637 -3.178572,1.953446 -3.178571,1.953447 0.104812,0.715042 c 0.05765,0.393274 0.116001,0.720771 0.129674,0.727774 0.14765,0.07561 6.270718,1.802326 6.409699,1.807546 0.10329,0.0039 0.340352,-0.207183 0.526802,-0.469028 z m -17.48173,-1.451587 c 1.269057,-0.186278 2.370299,-0.395783 2.447201,-0.465566 0.0769,-0.06978 0.260995,-0.484808 0.409093,-0.922277 l 0.269269,-0.795398 -2.792568,-2.78686 c -2.195893,-2.191406 -2.843493,-2.753773 -3.030913,-2.632004 -0.131091,0.08517 -0.505769,0.228904 -0.832618,0.319408 -0.412644,0.114259 -0.617353,0.27208 -0.669794,0.516378 -0.144817,0.674623 -0.722133,4.569256 -0.71789,4.842966 0.0024,0.151695 0.279559,0.445502 0.616018,0.652905 0.33646,0.207402 0.781438,0.652381 0.98884,0.98884 0.228965,0.371438 0.500618,0.613424 0.69154,0.616019 0.172944,0.0024 1.352763,-0.148135 2.621822,-0.334411 z m 34.211317,-0.19698 c 1.147444,-0.488921 1.628978,-1.592506 1.172042,-2.686108 -0.627016,-1.500657 -2.748652,-1.633924 -3.606777,-0.22655 -0.59432,0.974714 -0.219548,2.287638 0.810721,2.840176 0.647921,0.347484 0.947258,0.360844 1.624014,0.07248 z m -21.178303,-4.967574 2.621822,-1.619002 0.0013,-1.007206 c 6.36e-4,-0.553962 0.05322,-1.25747 0.116765,-1.563349 l 0.11553,-0.556145 -2.496921,-2.01343 c -2.415663,-1.947907 -2.509956,-2.006244 -2.897484,-1.792594 -0.220309,0.121459 -0.65338,0.320287 -0.96238,0.441836 l -0.561817,0.221 -0.537593,4.661163 c -0.381255,3.305652 -0.485792,4.678429 -0.359464,4.720538 0.09797,0.03266 0.413943,0.223322 0.702162,0.423703 l 0.524037,0.364328 0.556144,-0.330922 c 0.305879,-0.182005 1.735964,-1.05947 3.177966,-1.94992 z m -7.791329,1.423139 c 0.396196,-0.146596 0.740299,-0.279756 0.764678,-0.295911 0.02438,-0.01616 0.29327,-2.126036 0.597538,-4.688622 0.55259,-4.653974 0.554581,-4.904945 0.03899,-4.915985 -0.06251,-0.0013 -0.364605,-0.222779 -0.671334,-0.492091 l -0.55769,-0.489658 -3.023052,1.391301 -3.023051,1.391303 v 0.851341 c 0,0.468238 -0.109731,1.113962 -0.243846,1.434945 l -0.243845,0.583605 2.74479,2.748156 c 1.509636,1.511486 2.778919,2.748157 2.820631,2.748157 0.04171,0 0.4,-0.119943 0.796195,-0.266541 z m 25.461544,-1.04437 c 0.200609,-0.196637 0.543281,-0.473352 0.761493,-0.614921 l 0.396751,-0.257401 -0.699462,-3.556158 c -0.384706,-1.955889 -0.729081,-3.638512 -0.76528,-3.739163 -0.0362,-0.100653 -0.329004,-0.231029 -0.650677,-0.289724 -0.321674,-0.0587 -0.813598,-0.239918 -1.093165,-0.402717 l -0.508301,-0.295997 -2.510767,2.061893 c -1.38092,1.13404 -2.482922,2.148408 -2.448891,2.254152 0.03403,0.105743 0.105534,0.650042 0.158898,1.209551 l 0.09703,1.017291 3.416314,1.474579 c 1.878972,0.811019 3.43094,1.479429 3.448816,1.485358 0.01788,0.0059 0.196636,-0.150107 0.397246,-0.346743 z M 4.8322409,24.461745 c 0.6359036,-0.328839 1.0220614,-1.000721 1.0220614,-1.778303 0,-1.176518 -0.8403767,-2.016894 -2.0168944,-2.016894 -1.2098903,0 -2.0085293,0.846718 -2.0085293,2.129447 0,0.557331 0.097677,0.759855 0.6168993,1.279077 0.5192228,0.519222 0.7217451,0.616899 1.2790774,0.616899 0.3641979,0 0.8625214,-0.103602 1.1073856,-0.230226 z M 42.768828,23.478368 c 0.718043,-0.340734 1.235309,-1.317946 1.094613,-2.067925 -0.139616,-0.744215 -0.937418,-1.6109 -1.596725,-1.734587 -1.674984,-0.314229 -2.996302,1.454638 -2.21508,2.965354 0.30063,0.581355 1.10587,1.095976 1.716152,1.096777 0.248975,3.17e-4 0.699443,-0.116501 1.00104,-0.259619 z m -32.123824,-3.69894 3.175236,-0.924245 0.103434,-0.50574 c 0.103429,-0.505708 0.103337,-0.505787 -1.485291,-1.302999 l -1.588726,-0.79726 -0.339309,0.318523 C 9.93976,17.103341 8.7948869,17.534335 7.9327541,17.538058 l -0.8082008,0.0035 -0.4181375,0.969083 -0.4181378,0.969083 0.4981655,0.6199 c 0.273991,0.340945 0.5398263,0.616336 0.5907452,0.611979 0.050919,-0.0044 1.5214357,-0.423831 3.2678153,-0.932164 z m 8.486216,0.380914 c 0.734453,-0.663534 0.932572,-1.387198 0.598603,-2.186499 -0.645901,-1.54586 -2.754922,-1.781705 -3.596024,-0.402134 -0.604138,0.990906 -0.350954,2.132798 0.617609,2.785513 0.823468,0.554935 1.620642,0.488986 2.379812,-0.19688 z M 39.752196,18.37239 C 39.884919,18.28795 39.521317,16.761804 38.464958,12.96947 37.655244,10.062589 36.964221,7.6569912 36.929352,7.6236974 36.894484,7.5904036 36.546026,7.5380399 36.154999,7.5073339 L 35.444045,7.4515047 34.58077,8.7050672 c -0.713253,1.0357173 -0.830633,1.2980458 -0.675448,1.5095338 0.623854,0.850192 0.85381,1.666694 0.762178,2.706249 -0.05068,0.575017 -0.11305,1.158468 -0.138588,1.296559 -0.02957,0.1599 0.847942,0.981832 2.416492,2.263436 1.354608,1.1068 2.498676,2.011658 2.542373,2.010795 0.0437,-7.95e-4 0.162686,-0.05453 0.264419,-0.11925 z m 6.987604,-1.8894 2.460018,-2.011945 -0.127602,-0.649601 c -0.07018,-0.35728 -0.119924,-0.940987 -0.110539,-1.297127 L 48.978738,11.87679 44.66111,9.154486 C 42.286415,7.6572186 40.218185,6.3841002 40.065042,6.3253341 39.7746,6.2138809 38.852184,6.945661 38.852184,7.287531 c 0,0.095598 0.634033,2.4597364 1.408961,5.25364 l 1.40896,5.079825 0.987126,0.258904 c 0.542919,0.142397 1.067255,0.339034 1.165192,0.436971 0.09794,0.09794 0.240907,0.178066 0.317714,0.178066 0.07681,0 1.246654,-0.905376 2.599663,-2.011947 z m -21.291149,-2.321696 1.45346,-0.66008 0.08007,-0.959177 c 0.04404,-0.527547 0.126607,-1.102336 0.183482,-1.277309 0.08605,-0.26475 -0.313921,-0.660161 -2.383669,-2.3564684 L 22.29492,6.8699228 21.526616,7.2004384 c -0.422567,0.1817835 -0.872223,0.3305154 -0.999235,0.3305154 -0.272315,0 -0.281777,0.047738 -0.833787,4.2060682 l -0.421239,3.17323 0.372801,0.243084 c 0.205042,0.133696 0.584874,0.430714 0.844072,0.660039 l 0.47127,0.416954 1.517347,-0.704478 c 0.834541,-0.387463 2.171404,-1.001514 2.970806,-1.364557 z m -10.00627,1.47047 c 0.300491,-0.263835 0.863606,-0.564553 1.251367,-0.668263 0.604421,-0.161658 0.717013,-0.257592 0.789061,-0.672314 0.162947,-0.937954 0.8703,-6.3671192 0.870893,-6.6843745 C 18.35402,7.4026306 18.153056,7.1770473 17.802468,6.988243 l -0.551835,-0.2971825 -2.867628,2.7455625 -2.867629,2.745562 0.107779,0.574279 c 0.05928,0.315853 0.114323,0.860295 0.122323,1.209871 0.01454,0.635345 0.0151,0.635886 1.444629,1.384569 0.786547,0.411937 1.49215,0.751582 1.568007,0.754768 0.07586,0.0032 0.383777,-0.210075 0.684267,-0.473908 z m -6.8818999,-0.05719 c 1.0789107,-0.450798 1.5927429,-1.646784 1.1562905,-2.691361 -0.346312,-0.828841 -1.0973059,-1.25553 -2.0631425,-1.172206 -2.0722427,0.178774 -2.5526524,2.927371 -0.6617956,3.786371 0.7713442,0.350415 0.8996309,0.356728 1.5686476,0.0772 z M 31.777636,14.495196 c 0.86671,-0.3949 1.35472,-1.941218 0.887912,-2.813456 -0.463876,-0.866763 -1.6801,-1.241212 -2.682666,-0.825936 -1.382977,0.572849 -1.527899,2.870232 -0.225629,3.576836 0.527808,0.286386 1.465414,0.315416 2.020383,0.06256 z m 22.231082,-0.145645 c 1.377807,-1.083783 1.003059,-3.17294 -0.65108,-3.62967 -1.645778,-0.454421 -3.130427,1.339514 -2.352909,2.843069 0.574519,1.110997 2.087821,1.507258 3.003989,0.786601 z M 29.118264,9.1596615 c 0.321521,-0.2106682 0.757421,-0.2780721 1.798289,-0.2780721 h 1.373895 l 0.813021,-1.2227416 0.81302,-1.2227417 -0.432047,-0.8728399 -0.432046,-0.8728398 -4.716517,-0.00982 c -4.664162,-0.00971 -4.717698,-0.0061 -4.823005,0.3256939 -0.06375,0.2008646 -0.02022,0.4217482 0.108465,0.5503867 0.636325,0.6360794 4.694659,3.863495 4.86832,3.8715616 0.112318,0.00522 0.39519,-0.1156465 0.628605,-0.2685871 z m -8.47906,-3.5967057 c 0.689589,-0.2881283 1.210861,-1.143021 1.210861,-1.9858238 0,-1.4747336 -1.785877,-2.4188745 -3.07194,-1.6240443 -1.471744,0.9095881 -1.18234,3.1711621 0.469075,3.6656167 0.655523,0.1962723 0.802967,0.1903673 1.392004,-0.055749 z M 37.944096,5.4410309 c 0.483475,-0.2587477 0.906858,-1.1195832 0.907493,-1.8451435 0.0013,-1.4348285 -1.685072,-2.3953523 -3.006066,-1.7122389 -0.737846,0.3815547 -1.196346,1.4542497 -0.974203,2.2792231 0.359428,1.334814 1.82659,1.945098 3.072776,1.2781593 z"
       id="path4435"
       inkscape:connector-curvature="0"
       transform="translate(0.15889781,0.31779606)" />
    <path
       style="opacity:1;fill:#2a4879;fill-opacity:1;stroke:#000000;stroke-width:0;stroke-miterlimit:4;stroke-dasharray:none;stroke-opacity:1"
       d="m 40.997311,59.501017 c -0.722052,-0.175783 -1.394903,-0.567234 -1.948797,-1.13377 -0.77407,-0.791736 -1.060934,-1.519991 -1.05965,-2.690107 0.0013,-1.201083 0.353135,-2.006027 1.26306,-2.889835 l 0.58249,-0.565771 -0.374376,-1.240077 -0.374375,-1.240076 -0.792058,-0.181593 c -1.817736,-0.416753 -3.018611,-1.597761 -3.333982,-3.278824 l -0.105532,-0.562538 -2.728179,-0.644741 -2.728177,-0.644741 -0.235512,0.340729 c -1.177175,1.703097 -3.295239,2.287954 -5.047828,1.393849 -0.693603,-0.353849 -1.696677,-1.390155 -1.867971,-1.929855 -0.107137,-0.337558 -0.170852,-0.350703 -1.247746,-0.257407 -0.624163,0.05407 -1.838477,0.145749 -2.698474,0.203724 -1.231122,0.08299 -1.580338,0.159336 -1.642179,0.359014 -0.632425,2.041969 -2.201322,3.171706 -4.158214,2.994261 -0.509633,-0.04621 -1.145124,-0.197023 -1.412203,-0.335134 -0.6992,-0.36157 -1.4755959,-1.18697 -1.8109945,-1.925298 C 8.9430546,44.53855 8.8887494,43.113561 9.1642118,42.323368 9.340183,41.818577 9.3221773,41.769425 8.7917237,41.306543 8.4851548,41.039026 7.7550777,40.397344 7.1693297,39.880582 L 6.1043337,38.941016 5.5534029,39.203737 C 3.707996,40.083749 1.4978753,39.393304 0.44914286,37.609157 0.07343077,36.969981 0.00154812,36.669061 0.00154812,35.735403 c 0,-1.687208 0.79452025,-2.952955 2.26430088,-3.607251 L 2.9411668,31.827523 V 29.165608 26.503694 L 2.4247473,26.31648 C 0.45288772,25.601638 -0.59297422,23.167485 0.23989556,21.231426 0.62693182,20.331736 1.554307,19.387936 2.3974673,19.035641 c 0.2934206,-0.1226 0.8966129,-0.222907 1.340427,-0.222907 H 4.544829 L 4.9953834,17.819619 5.4459378,16.826505 5.005833,16.34981 C 3.7057415,14.941629 3.5797004,12.90114 4.6974932,11.358072 5.8785638,9.7276511 8.3455802,9.2832187 9.9542552,10.411067 L 10.373064,10.704696 13.235723,7.9961058 16.098382,5.2875159 16.0152,4.0654848 c -0.09567,-1.405484 0.0937,-2.0170405 0.91382,-2.9511054 0.80904,-0.92144558 1.627144,-1.27972605 2.934816,-1.28527419 0.938703,-0.003983 1.231124,0.0651329 1.873754,0.44287558 0.779956,0.4584623 1.638376,1.47031721 1.802657,2.12486381 l 0.09215,0.3671601 h 4.668141 4.668142 L 33.189283,2.236029 c 0.313734,-0.75087 1.158763,-1.66209068 1.884889,-2.03253214 2.52872,-1.29005646 5.365055,0.36548737 5.657807,3.30241244 l 0.106434,1.0677502 4.476276,2.8159929 c 4.339273,2.7298046 4.484614,2.8067816 4.748654,2.5150211 0.149806,-0.1655344 0.634293,-0.481323 1.076637,-0.7017524 2.837152,-1.4138126 6.177561,1.1183379 5.534961,4.1956989 -0.217751,1.042791 -0.791803,1.95276 -1.535989,2.4348 -0.303545,0.196621 -0.552787,0.469801 -0.553869,0.607068 -0.0017,0.213108 1.107122,5.919844 1.346072,6.927914 0.05496,0.231874 0.250993,0.381394 0.598316,0.456362 2.125937,0.458873 3.562543,2.55819 3.140808,4.589679 -0.366679,1.76628 -1.782196,3.033533 -3.501779,3.134995 -0.421972,0.0249 -0.70576,0.133885 -0.798153,0.306522 -0.07885,0.147337 -0.644833,1.675792 -1.257734,3.396565 l -1.114365,3.128679 0.466519,0.392551 c 0.256586,0.215903 0.658526,0.784997 0.8932,1.264654 0.844175,1.725432 0.237187,3.868713 -1.380422,4.874272 -0.84562,0.525667 -0.876902,0.622829 -0.674936,2.096336 0.06654,0.485466 0.193022,0.779148 0.357521,0.83014 1.318262,0.408645 2.360114,1.286041 2.812367,2.368437 0.362075,0.866569 0.286311,2.335922 -0.166527,3.229554 -0.693485,1.368526 -1.891286,2.111151 -3.419938,2.120328 -1.062566,0.0064 -1.960545,-0.348708 -2.705458,-1.069818 l -0.556145,-0.538375 -1.430084,0.587222 -1.430085,0.58722 -0.09304,0.970436 c -0.153873,1.604908 -1.178144,2.854085 -2.714281,3.310268 -0.884639,0.26271 -1.211151,0.278803 -1.959627,0.09659 z m 1.817533,-2.048549 c 0.583357,-0.312856 1.122085,-1.147994 1.122085,-1.739455 0,-0.997109 -1.080015,-2.101551 -2.055071,-2.101551 -1.517234,0 -2.530527,1.679748 -1.830222,3.033986 0.517636,1.000998 1.737309,1.357215 2.763208,0.80702 z m 10.175563,-4.126225 c 0.608563,-0.445475 0.985711,-1.282805 0.869865,-1.931242 -0.270507,-1.514131 -1.864262,-2.229588 -3.104627,-1.393705 -0.647712,0.436492 -0.934196,0.957553 -0.936542,1.703387 -0.0051,1.62125 1.865252,2.577603 3.171304,1.62156 z m -6.350285,-0.54893 c 1.258004,-0.511772 1.269265,-0.521463 1.269265,-1.09231 0,-1.294292 0.819647,-2.732139 1.913519,-3.356747 0.565476,-0.322891 0.626355,-0.419508 0.625881,-0.993277 -7.94e-4,-1.054695 -0.178602,-1.82733 -0.420346,-1.82733 -0.434057,0 -1.775346,-0.790813 -2.147225,-1.265988 l -0.377196,-0.481967 -2.299964,0.768641 c -1.804951,0.603208 -2.310667,0.83406 -2.34969,1.0726 -0.199876,1.221818 -0.578386,2.062945 -1.252774,2.78392 l -0.727731,0.778003 0.361875,1.270913 c 0.267799,0.940511 0.431257,1.270912 0.628754,1.270912 0.652562,0 1.907015,0.517792 2.479929,1.023626 0.343942,0.30367 0.715594,0.555105 0.825893,0.558742 0.110298,0.0036 0.771712,-0.225744 1.46981,-0.509738 z m -6.659423,-5.407789 c 0.341888,-0.22967 0.623237,-0.601808 0.767087,-1.014617 0.204417,-0.586621 0.198491,-0.727006 -0.05916,-1.401648 -0.233286,-0.61085 -0.407827,-0.804907 -0.942213,-1.047572 -0.360737,-0.163812 -0.788088,-0.299409 -0.949668,-0.301328 -0.526395,-0.0062 -1.405427,0.516163 -1.710612,1.016631 -1.121803,1.839629 1.102913,3.952111 2.894562,2.748534 z M 13.89882,45.406663 c 0.610422,-0.360585 0.95972,-1.019087 0.95972,-1.80928 0,-0.565832 -0.09552,-0.765014 -0.6169,-1.286395 -0.544279,-0.544279 -0.706184,-0.616899 -1.375361,-0.616899 -1.431576,0 -2.351467,1.203754 -1.971503,2.579873 0.330953,1.19861 1.894464,1.788145 3.004044,1.132701 z m 12.89201,-0.939568 c 0.998836,-0.516518 1.396962,-1.918211 0.801391,-2.821481 -0.884446,-1.341389 -2.567473,-1.325768 -3.474688,0.03225 -1.12549,1.684756 0.841142,3.736676 2.673297,2.789231 z m 8.86078,-1.028528 c 0.195224,-0.264055 0.304654,-0.567948 0.243179,-0.675318 -0.474396,-0.828565 -5.552938,-8.976773 -5.690097,-9.129408 -0.110041,-0.122457 -0.387309,-0.160333 -0.746733,-0.102006 l -0.571702,0.09277 -0.640495,2.723828 -0.640496,2.72383 0.70307,0.612898 c 0.769443,0.670759 1.240825,1.463457 1.411613,2.373836 0.06072,0.323663 0.156069,0.593638 0.211889,0.599944 0.05582,0.0063 1.209805,0.283863 2.564414,0.616793 1.354608,0.332928 2.538856,0.613786 2.631664,0.624127 0.09281,0.01034 0.32847,-0.197244 0.523694,-0.461298 z m 15.970312,0.102108 c 0.809897,-0.338396 1.213313,-0.960271 1.213313,-1.870347 0,-0.661329 -0.08002,-0.862712 -0.543935,-1.368933 -0.505247,-0.55132 -0.607829,-0.593534 -1.442294,-0.593534 -0.834466,0 -0.937047,0.04221 -1.442295,0.593534 -0.894688,0.976274 -0.719903,2.344382 0.395544,3.096081 0.618165,0.416582 1.078642,0.452819 1.819667,0.143199 z M 46.955997,41.44511 c 0,-0.296495 0.117755,-0.83338 0.261679,-1.19308 l 0.261678,-0.653998 -1.279328,-1.279327 -1.279327,-1.279328 -0.653998,0.261678 c -0.3597,0.143924 -0.896586,0.261679 -1.19308,0.261679 h -0.539083 l -0.789976,2.364448 -0.789976,2.364449 0.636256,0.636258 0.636258,0.636256 2.364449,-0.789976 2.364448,-0.789976 z m -27.648305,0.805124 c 2.578424,-0.158009 2.631693,-0.174012 2.834714,-0.851638 0.364398,-1.216252 1.986556,-2.564676 3.085314,-2.564676 0.229432,0 0.465388,-0.07805 0.524346,-0.173449 0.05896,-0.0954 0.381797,-1.362324 0.717419,-2.815395 0.610958,-2.645127 0.614944,-3.029212 0.02922,-2.814591 -0.108771,0.03986 -2.448416,2.04988 -5.199214,4.466724 -4.454799,3.913975 -4.983286,4.428197 -4.835274,4.704758 0.133665,0.249758 0.280397,0.293898 0.75006,0.225635 0.321137,-0.04668 1.263177,-0.126491 2.09342,-0.177368 z m 19.531959,-0.536465 c 0.331783,-0.09274 0.489415,-0.42079 1.145689,-2.384269 l 0.760975,-2.27673 -0.527665,-0.499786 c -0.635715,-0.602124 -1.131041,-1.539968 -1.277204,-2.41824 l -0.107718,-0.647269 -3.208464,-0.906678 c -1.764653,-0.498674 -3.260442,-0.904569 -3.323973,-0.90199 -0.06353,0.0026 -0.230267,0.17983 -0.370525,0.393892 -0.250303,0.38201 -0.201197,0.475862 2.657884,5.079854 2.785959,4.486243 2.933671,4.690176 3.389593,4.679705 0.262182,-0.006 0.649816,-0.05934 0.861408,-0.118489 z M 10.936253,40.234485 c 0.190891,-0.103631 0.704596,-0.269088 1.141566,-0.367685 l 0.794492,-0.179267 0.56713,-2.211304 0.567131,-2.211303 -0.799064,-0.734741 -0.799064,-0.734741 -2.331108,0.778837 -2.3311078,0.778837 -0.094891,0.826735 c -0.05219,0.454705 -0.1143935,0.975977 -0.1382299,1.158383 -0.031836,0.243621 0.3573153,0.694353 1.4661954,1.698214 0.8302436,0.751613 1.5321103,1.371043 1.5597043,1.376511 0.02759,0.0055 0.206355,-0.07485 0.397246,-0.178476 z m 9.344083,-4.280103 c 3.096314,-2.718092 5.033084,-4.525751 4.944214,-4.614621 -0.19844,-0.19844 -5.307623,0.60763 -5.469813,0.862966 -0.06841,0.107696 -0.125478,0.288041 -0.126815,0.400765 -0.0042,0.354632 -0.587594,1.36971 -1.05694,1.839057 -0.55113,0.551129 -1.370623,0.975855 -2.158776,1.118846 -0.6587,0.119504 -0.543184,-0.137954 -1.311289,2.922585 -0.394444,1.571679 -0.407184,1.938923 -0.06726,1.938923 0.086,0 2.447004,-2.010834 5.246678,-4.468521 z m 30.061686,1.860585 0.976047,-0.199096 1.174136,-3.298262 1.174134,-3.29826 -0.556943,-0.581592 c -0.756753,-0.790245 -1.054865,-1.4359 -1.169534,-2.53299 l -0.09684,-0.926529 -3.406104,-1.471106 -3.406105,-1.471106 -0.608825,0.550037 c -0.334854,0.302521 -0.768966,0.600863 -0.964694,0.662985 -0.346136,0.10986 -0.353013,0.154846 -0.251482,1.644991 0.193359,2.837849 0.185354,2.813125 1.013198,3.129281 1.041083,0.397593 2.023306,1.438678 2.32922,2.468803 0.312717,1.053032 0.30516,1.455755 -0.04595,2.448788 l -0.280911,0.794492 1.268518,1.301911 c 1.085813,1.114394 1.312276,1.278494 1.572306,1.139329 0.167083,-0.08942 0.743006,-0.252173 1.279832,-0.361676 z M 4.9323324,37.400784 C 6.0588465,36.70456 6.1762628,35.0211 5.1580644,34.164342 3.7739162,32.999659 1.8311119,33.932711 1.8294726,35.762935 c -0.00138,1.537332 1.7606153,2.467402 3.1028598,1.637849 z M 43.778031,35.489665 c 0.131091,-0.06728 0.417108,-0.313414 0.635593,-0.546964 0.32404,-0.346384 0.397246,-0.585583 0.397246,-1.297987 0,-0.805581 -0.04606,-0.915556 -0.593534,-1.417283 -0.514008,-0.471053 -0.702432,-0.543935 -1.40625,-0.543935 -0.708617,0 -0.880311,0.0676 -1.340438,0.527722 -0.314405,0.314406 -0.572251,0.765088 -0.637884,1.114937 -0.303561,1.61812 1.469785,2.920772 2.945267,2.16351 z M 16.687494,33.520389 c 0.301158,-0.125833 0.691869,-0.465478 0.868244,-0.754767 1.247584,-2.046284 -1.468064,-4.193595 -3.16167,-2.499988 -0.61465,0.61465 -0.747386,1.321481 -0.407624,2.170629 0.454607,1.136175 1.536853,1.570558 2.70105,1.084126 z M 9.6943447,32.739512 11.918921,32.0009 l 0.04572,-0.67512 c 0.09959,-1.470536 1.301932,-2.968473 2.67814,-3.336552 0.465689,-0.124554 0.781635,-0.313131 0.863473,-0.51538 0.07098,-0.175424 0.283546,-1.389691 0.472361,-2.698371 l 0.3433,-2.379418 -0.374167,-0.236303 c -0.205791,-0.129966 -0.639443,-0.507189 -0.96367,-0.838272 -0.324227,-0.331084 -0.645996,-0.604081 -0.715042,-0.60666 -0.06905,-0.0026 -1.5735,0.404496 -3.343229,0.904611 l -3.2176911,0.909301 v 0.530577 c 0,1.2018 -0.9065304,2.465163 -2.2682147,3.16104 l -0.7586806,0.387717 0.043638,2.577438 0.043638,2.577437 0.8386821,0.449446 c 0.4612752,0.247195 0.9945621,0.660284 1.1850818,0.917976 0.1905199,0.257692 0.4208989,0.441356 0.5119535,0.408143 0.091055,-0.03321 1.1666131,-0.392762 2.3901307,-0.798998 z M 30.167387,31.16107 c 1.398283,-1.318751 0.570291,-3.450031 -1.340321,-3.450031 -0.671845,0 -0.869953,0.07819 -1.37817,0.543934 -0.53389,0.489275 -0.593534,0.623828 -0.593534,1.338984 0,1.301949 0.7832,2.082572 2.094089,2.087197 0.534233,0.0019 0.772261,-0.09976 1.217936,-0.520084 z m 9.63775,0.04635 c 0.186451,-0.261846 0.664317,-0.666731 1.061926,-0.899745 L 41.589989,29.884006 41.486756,28.5989 c -0.222938,-2.775249 -0.281098,-3.112438 -0.536846,-3.112438 -0.134585,0 -0.630331,-0.217636 -1.101658,-0.483637 l -0.856959,-0.483637 -3.178572,1.953446 -3.178571,1.953447 0.104812,0.715042 c 0.05765,0.393274 0.116001,0.720771 0.129674,0.727774 0.14765,0.07561 6.270718,1.802326 6.409699,1.807546 0.10329,0.0039 0.340352,-0.207183 0.526802,-0.469028 z m -17.48173,-1.451587 c 1.269057,-0.186278 2.370299,-0.395783 2.447201,-0.465566 0.0769,-0.06978 0.260995,-0.484808 0.409093,-0.922277 l 0.269269,-0.795398 -2.792568,-2.78686 c -2.195893,-2.191406 -2.843493,-2.753773 -3.030913,-2.632004 -0.131091,0.08517 -0.505769,0.228904 -0.832618,0.319408 -0.412644,0.114259 -0.617353,0.27208 -0.669794,0.516378 -0.144817,0.674623 -0.722133,4.569256 -0.71789,4.842966 0.0024,0.151695 0.279559,0.445502 0.616018,0.652905 0.33646,0.207402 0.781438,0.652381 0.98884,0.98884 0.228965,0.371438 0.500618,0.613424 0.69154,0.616019 0.172944,0.0024 1.352763,-0.148135 2.621822,-0.334411 z m 34.211317,-0.19698 c 1.147444,-0.488921 1.628978,-1.592506 1.172042,-2.686108 -0.627016,-1.500657 -2.748652,-1.633924 -3.606777,-0.22655 -0.59432,0.974714 -0.219548,2.287638 0.810721,2.840176 0.647921,0.347484 0.947258,0.360844 1.624014,0.07248 z m -21.178303,-4.967574 2.621822,-1.619002 0.0013,-1.007206 c 6.36e-4,-0.553962 0.05322,-1.25747 0.116765,-1.563349 l 0.11553,-0.556145 -2.496921,-2.01343 c -2.415663,-1.947907 -2.509956,-2.006244 -2.897484,-1.792594 -0.220309,0.121459 -0.65338,0.320287 -0.96238,0.441836 l -0.561817,0.221 -0.537593,4.661163 c -0.381255,3.305652 -0.485792,4.678429 -0.359464,4.720538 0.09797,0.03266 0.413943,0.223322 0.702162,0.423703 l 0.524037,0.364328 0.556144,-0.330922 c 0.305879,-0.182005 1.735964,-1.05947 3.177966,-1.94992 z m -7.791329,1.423139 c 0.396196,-0.146596 0.740299,-0.279756 0.764678,-0.295911 0.02438,-0.01616 0.29327,-2.126036 0.597538,-4.688622 0.55259,-4.653974 0.554581,-4.904945 0.03899,-4.915985 -0.06251,-0.0013 -0.364605,-0.222779 -0.671334,-0.492091 l -0.55769,-0.489658 -3.023052,1.391301 -3.023051,1.391303 v 0.851341 c 0,0.468238 -0.109731,1.113962 -0.243846,1.434945 l -0.243845,0.583605 2.74479,2.748156 c 1.509636,1.511486 2.778919,2.748157 2.820631,2.748157 0.04171,0 0.4,-0.119943 0.796195,-0.266541 z m 25.461544,-1.04437 c 0.200609,-0.196637 0.543281,-0.473352 0.761493,-0.614921 l 0.396751,-0.257401 -0.699462,-3.556158 c -0.384706,-1.955889 -0.729081,-3.638512 -0.76528,-3.739163 -0.0362,-0.100653 -0.329004,-0.231029 -0.650677,-0.289724 -0.321674,-0.0587 -0.813598,-0.239918 -1.093165,-0.402717 l -0.508301,-0.295997 -2.510767,2.061893 c -1.38092,1.13404 -2.482922,2.148408 -2.448891,2.254152 0.03403,0.105743 0.105534,0.650042 0.158898,1.209551 l 0.09703,1.017291 3.416314,1.474579 c 1.878972,0.811019 3.43094,1.479429 3.448816,1.485358 0.01788,0.0059 0.196636,-0.150107 0.397246,-0.346743 z M 4.8322409,24.461745 c 0.6359036,-0.328839 1.0220614,-1.000721 1.0220614,-1.778303 0,-1.176518 -0.8403767,-2.016894 -2.0168944,-2.016894 -1.2098903,0 -2.0085293,0.846718 -2.0085293,2.129447 0,0.557331 0.097677,0.759855 0.6168993,1.279077 0.5192228,0.519222 0.7217451,0.616899 1.2790774,0.616899 0.3641979,0 0.8625214,-0.103602 1.1073856,-0.230226 z M 42.768828,23.478368 c 0.718043,-0.340734 1.235309,-1.317946 1.094613,-2.067925 -0.139616,-0.744215 -0.937418,-1.6109 -1.596725,-1.734587 -1.674984,-0.314229 -2.996302,1.454638 -2.21508,2.965354 0.30063,0.581355 1.10587,1.095976 1.716152,1.096777 0.248975,3.17e-4 0.699443,-0.116501 1.00104,-0.259619 z m -32.123824,-3.69894 3.175236,-0.924245 0.103434,-0.50574 c 0.103429,-0.505708 0.103337,-0.505787 -1.485291,-1.302999 l -1.588726,-0.79726 -0.339309,0.318523 C 9.93976,17.103341 8.7948869,17.534335 7.9327541,17.538058 l -0.8082008,0.0035 -0.4181375,0.969083 -0.4181378,0.969083 0.4981655,0.6199 c 0.273991,0.340945 0.5398263,0.616336 0.5907452,0.611979 0.050919,-0.0044 1.5214357,-0.423831 3.2678153,-0.932164 z m 8.486216,0.380914 c 0.734453,-0.663534 0.932572,-1.387198 0.598603,-2.186499 -0.645901,-1.54586 -2.754922,-1.781705 -3.596024,-0.402134 -0.604138,0.990906 -0.350954,2.132798 0.617609,2.785513 0.823468,0.554935 1.620642,0.488986 2.379812,-0.19688 z M 39.752196,18.37239 C 39.884919,18.28795 39.521317,16.761804 38.464958,12.96947 37.655244,10.062589 36.964221,7.6569912 36.929352,7.6236974 36.894484,7.5904036 36.546026,7.5380399 36.154999,7.5073339 L 35.444045,7.4515047 34.58077,8.7050672 c -0.713253,1.0357173 -0.830633,1.2980458 -0.675448,1.5095338 0.623854,0.850192 0.85381,1.666694 0.762178,2.706249 -0.05068,0.575017 -0.11305,1.158468 -0.138588,1.296559 -0.02957,0.1599 0.847942,0.981832 2.416492,2.263436 1.354608,1.1068 2.498676,2.011658 2.542373,2.010795 0.0437,-7.95e-4 0.162686,-0.05453 0.264419,-0.11925 z m 6.987604,-1.8894 2.460018,-2.011945 -0.127602,-0.649601 c -0.07018,-0.35728 -0.119924,-0.940987 -0.110539,-1.297127 L 48.978738,11.87679 44.66111,9.154486 C 42.286415,7.6572186 40.218185,6.3841002 40.065042,6.3253341 39.7746,6.2138809 38.852184,6.945661 38.852184,7.287531 c 0,0.095598 0.634033,2.4597364 1.408961,5.25364 l 1.40896,5.079825 0.987126,0.258904 c 0.542919,0.142397 1.067255,0.339034 1.165192,0.436971 0.09794,0.09794 0.240907,0.178066 0.317714,0.178066 0.07681,0 1.246654,-0.905376 2.599663,-2.011947 z m -21.291149,-2.321696 1.45346,-0.66008 0.08007,-0.959177 c 0.04404,-0.527547 0.126607,-1.102336 0.183482,-1.277309 0.08605,-0.26475 -0.313921,-0.660161 -2.383669,-2.3564684 L 22.29492,6.8699228 21.526616,7.2004384 c -0.422567,0.1817835 -0.872223,0.3305154 -0.999235,0.3305154 -0.272315,0 -0.281777,0.047738 -0.833787,4.2060682 l -0.421239,3.17323 0.372801,0.243084 c 0.205042,0.133696 0.584874,0.430714 0.844072,0.660039 l 0.47127,0.416954 1.517347,-0.704478 c 0.834541,-0.387463 2.171404,-1.001514 2.970806,-1.364557 z m -10.00627,1.47047 c 0.300491,-0.263835 0.863606,-0.564553 1.251367,-0.668263 0.604421,-0.161658 0.717013,-0.257592 0.789061,-0.672314 0.162947,-0.937954 0.8703,-6.3671192 0.870893,-6.6843745 C 18.35402,7.4026306 18.153056,7.1770473 17.802468,6.988243 l -0.551835,-0.2971825 -2.867628,2.7455625 -2.867629,2.745562 0.107779,0.574279 c 0.05928,0.315853 0.114323,0.860295 0.122323,1.209871 0.01454,0.635345 0.0151,0.635886 1.444629,1.384569 0.786547,0.411937 1.49215,0.751582 1.568007,0.754768 0.07586,0.0032 0.383777,-0.210075 0.684267,-0.473908 z m -6.8818999,-0.05719 c 1.0789107,-0.450798 1.5927429,-1.646784 1.1562905,-2.691361 -0.346312,-0.828841 -1.0973059,-1.25553 -2.0631425,-1.172206 -2.0722427,0.178774 -2.5526524,2.927371 -0.6617956,3.786371 0.7713442,0.350415 0.8996309,0.356728 1.5686476,0.0772 z M 31.777636,14.495196 c 0.86671,-0.3949 1.35472,-1.941218 0.887912,-2.813456 -0.463876,-0.866763 -1.6801,-1.241212 -2.682666,-0.825936 -1.382977,0.572849 -1.527899,2.870232 -0.225629,3.576836 0.527808,0.286386 1.465414,0.315416 2.020383,0.06256 z m 22.231082,-0.145645 c 1.377807,-1.083783 1.003059,-3.17294 -0.65108,-3.62967 -1.645778,-0.454421 -3.130427,1.339514 -2.352909,2.843069 0.574519,1.110997 2.087821,1.507258 3.003989,0.786601 z M 29.118264,9.1596615 c 0.321521,-0.2106682 0.757421,-0.2780721 1.798289,-0.2780721 h 1.373895 l 0.813021,-1.2227416 0.81302,-1.2227417 -0.432047,-0.8728399 -0.432046,-0.8728398 -4.716517,-0.00982 c -4.664162,-0.00971 -4.717698,-0.0061 -4.823005,0.3256939 -0.06375,0.2008646 -0.02022,0.4217482 0.108465,0.5503867 0.636325,0.6360794 4.694659,3.863495 4.86832,3.8715616 0.112318,0.00522 0.39519,-0.1156465 0.628605,-0.2685871 z m -8.47906,-3.5967057 c 0.689589,-0.2881283 1.210861,-1.143021 1.210861,-1.9858238 0,-1.4747336 -1.785877,-2.4188745 -3.07194,-1.6240443 -1.471744,0.9095881 -1.18234,3.1711621 0.469075,3.6656167 0.655523,0.1962723 0.802967,0.1903673 1.392004,-0.055749 z M 37.944096,5.4410309 c 0.483475,-0.2587477 0.906858,-1.1195832 0.907493,-1.8451435 0.0013,-1.4348285 -1.685072,-2.3953523 -3.006066,-1.7122389 -0.737846,0.3815547 -1.196346,1.4542497 -0.974203,2.2792231 0.359428,1.334814 1.82659,1.945098 3.072776,1.2781593 z"
       id="path4437"
       inkscape:connector-curvature="0"
       transform="translate(0.15889781,0.31779606)" />
  </g>
  <rect
     style="opacity:0;fill:#2a4879;fill-opacity:1;stroke:#000000;stroke-width:0;stroke-miterlimit:4;stroke-dasharray:none;stroke-opacity:1"
     id="rect4429"
     width="60.063557"
     height="60.222458"
     x="5e-07"
     y="5e-07" />
</svg>
