<?xml version="1.0" encoding="UTF-8" standalone="no"?>
<svg
   xmlns:dc="http://purl.org/dc/elements/1.1/"
   xmlns:cc="http://creativecommons.org/ns#"
   xmlns:rdf="http://www.w3.org/1999/02/22-rdf-syntax-ns#"
   xmlns:svg="http://www.w3.org/2000/svg"
   xmlns="http://www.w3.org/2000/svg"
   xmlns:sodipodi="http://sodipodi.sourceforge.net/DTD/sodipodi-0.dtd"
   xmlns:inkscape="http://www.inkscape.org/namespaces/inkscape"
   version="1.1"
   x="0px"
   y="0px"
   viewBox="0 0 41.69146 41.914356"
   enable-background="new 0 0 64 64"
   xml:space="preserve"
   id="svg5520"
   sodipodi:docname="SelfDrivingCar.svg"
   width="41.69146"
   height="41.914356"
   inkscape:version="0.92.5 (2060ec1f9f, 2020-04-08)"><metadata
     id="metadata5526"><rdf:RDF><cc:Work
         rdf:about=""><dc:format>image/svg+xml</dc:format><dc:type
           rdf:resource="http://purl.org/dc/dcmitype/StillImage" /></cc:Work></rdf:RDF></metadata><defs
     id="defs5524" /><sodipodi:namedview
     pagecolor="#ffffff"
     bordercolor="#666666"
     borderopacity="1"
     objecttolerance="10"
     gridtolerance="10"
     guidetolerance="10"
     inkscape:pageopacity="0"
     inkscape:pageshadow="2"
     inkscape:window-width="1366"
     inkscape:window-height="705"
     id="namedview5522"
     showgrid="false"
     inkscape:zoom="9.5105862"
     inkscape:cx="19.420304"
     inkscape:cy="21.693949"
     inkscape:window-x="-8"
     inkscape:window-y="-8"
     inkscape:window-maximized="1"
     inkscape:current-layer="svg5520" /><g
     id="g5514"
     transform="matrix(0.82069804,0,0,1.0124241,-5.4986769,-11.440392)"
     style="fill:#2a4879;fill-opacity:1"><g
       id="g5512"
       style="fill:#2a4879;fill-opacity:1"><path
         d="m 19.9,41.5 c -3.1,0 -5.6,2.5 -5.6,5.6 0,3.1 2.5,5.6 5.6,5.6 3.1,0 5.6,-2.5 5.6,-5.6 C 25.6,44 23,41.5 19.9,41.5 Z m 0,7.9 c -1.3,0 -2.3,-1 -2.3,-2.3 0,-1.3 1,-2.3 2.3,-2.3 1.3,0 2.3,1 2.3,2.3 0.1,1.3 -1,2.3 -2.3,2.3 z"
         id="path5500"
         inkscape:connector-curvature="0"
         style="fill:#2a4879;fill-opacity:1" /><path
         d="m 54.3,36.8 c -1.1,-0.4 -2,-1.1 -2.6,-2 l -2.9,-4.6 c -1.4,-2.3 -3.9,-3.7 -6.7,-3.7 h -3 L 38.2,23.1 C 38.1,22.6 37.6,22.2 37,22.2 h -1.5 c -0.5,0 -1,0.4 -1.2,0.9 l -0.9,3.4 H 33 c -3,0 -6,1.1 -8.3,3.1 l -5.5,4.7 c -1.7,1.4 -3.9,2.2 -6.1,2.2 v 0 c -3.5,0 -6.4,2.8 -6.4,6.4 v 3.4 c 0,1.6 1.3,3 3,3 h 3.6 C 13,48.5 12.9,47.6 13,46.7 c 0.2,-3.5 3,-6.3 6.5,-6.5 4.1,-0.3 7.5,3 7.5,7 0,0.7 -0.1,1.4 -0.3,2.1 H 40 c -0.3,-0.8 -0.4,-1.7 -0.3,-2.6 0.2,-3.5 3,-6.3 6.5,-6.5 4.1,-0.3 7.5,3 7.5,7 0,0.7 -0.1,1.4 -0.3,2.1 h 1.1 c 1.6,0 3,-1.3 3,-3 V 41 C 57.3,39 56,37.4 54.3,36.8 Z m -19,-1.9 H 34.2 V 34.8 C 34.2,34.4 33.8,34 33.4,34 h -1.3 v -0.7 h 1.2 c 0.4,0 0.8,-0.3 0.8,-0.8 v -0.1 c 0.5,0 0.8,-0.4 0.8,-0.8 0,-0.4 -0.4,-0.8 -0.8,-0.8 v -0.1 c 0,-0.4 -0.3,-0.8 -0.8,-0.8 h -1.4 v -0.7 c 0.1,0 0.2,-0.2 0.2,-0.3 0,-0.2 -0.1,-0.3 -0.3,-0.3 -0.2,0 -0.3,0.1 -0.3,0.3 0,0.1 0.1,0.2 0.2,0.3 V 30 h -1.4 c -0.4,0 -0.8,0.3 -0.8,0.8 v 0.1 c -0.4,0 -0.8,0.4 -0.8,0.8 0,0.4 0.4,0.8 0.8,0.8 v 0.1 c 0,0.4 0.3,0.8 0.8,0.8 h 1.2 V 34 H 30 c -0.4,0 -0.8,0.4 -0.8,0.8 v 0.1 H 27.6 V 32.6 C 27.8,32.5 28,32.2 28,31.9 h -0.3 c 0,0.3 -0.2,0.5 -0.5,0.5 -0.3,0 -0.5,-0.2 -0.5,-0.5 h -0.3 c 0,0.3 0.2,0.5 0.4,0.7 v 2.3 h -5.7 l 5,-4.3 C 28,28.9 30.5,28 33,28 h 2.2 v 6.9 z m -4.5,-2.5 h 1.7 v 0.4 h -1.7 z m 0,-0.7 c -0.2,0 -0.4,-0.2 -0.4,-0.4 0,-0.2 0.2,-0.4 0.4,-0.4 0.2,0 0.4,0.2 0.4,0.4 0,0.2 -0.2,0.4 -0.4,0.4 z m 1.4,-0.4 c 0,-0.2 0.2,-0.4 0.4,-0.4 0.2,0 0.4,0.2 0.4,0.4 0,0.2 -0.2,0.4 -0.4,0.4 -0.2,0 -0.4,-0.2 -0.4,-0.4 z m 5,3.6 v -6.8 h 4.6 c 2.1,0 4,1.1 5.2,2.9 l 2.5,4 H 37.2 Z"
         id="path5502"
         inkscape:connector-curvature="0"
         style="fill:#2a4879;fill-opacity:1" /><path
         d="m 46.5,41.5 c -3.1,0 -5.6,2.5 -5.6,5.6 0,3.1 2.5,5.6 5.6,5.6 3.1,0 5.6,-2.5 5.6,-5.6 0,-3.1 -2.5,-5.6 -5.6,-5.6 z m 0,7.9 c -1.3,0 -2.3,-1 -2.3,-2.3 0,-1.3 1,-2.3 2.3,-2.3 1.3,0 2.3,1 2.3,2.3 0,1.3 -1,2.3 -2.3,2.3 z"
         id="path5504"
         inkscape:connector-curvature="0"
         style="fill:#2a4879;fill-opacity:1" /><path
         d="m 29.2,15.8 c 1.9,-1.9 4.4,-2.9 7.1,-2.9 2.7,0 5.2,1 7.1,2.9 0.2,0.2 0.4,0.2 0.6,0.2 0.2,0 0.4,-0.1 0.6,-0.2 0.3,-0.3 0.3,-0.8 0,-1.1 -2.2,-2.2 -5.1,-3.4 -8.2,-3.4 -3.1,0 -6,1.2 -8.2,3.4 -0.3,0.3 -0.3,0.8 0,1.1 0.2,0.3 0.7,0.3 1,0 z"
         id="path5506"
         inkscape:connector-curvature="0"
         style="fill:#2a4879;fill-opacity:1" /><path
         d="m 41.4,18.5 c 0.2,0 0.4,-0.1 0.6,-0.2 0.3,-0.3 0.3,-0.8 0,-1.1 -1.5,-1.5 -3.6,-2.4 -5.7,-2.4 -2.2,0 -4.2,0.8 -5.7,2.4 -0.3,0.3 -0.3,0.8 0,1.1 0.3,0.3 0.8,0.3 1.1,0 1.2,-1.2 2.9,-1.9 4.6,-1.9 1.7,0 3.4,0.7 4.6,1.9 0.1,0.2 0.3,0.2 0.5,0.2 z"
         id="path5508"
         inkscape:connector-curvature="0"
         style="fill:#2a4879;fill-opacity:1" /><path
         d="m 33.1,19.7 c -0.3,0.3 -0.3,0.8 0,1.1 0.2,0.2 0.4,0.2 0.6,0.2 0.2,0 0.4,-0.1 0.6,-0.2 0.6,-0.6 1.3,-0.9 2.1,-0.9 0.8,0 1.5,0.3 2.1,0.9 0.3,0.3 0.8,0.3 1.1,0 0.3,-0.3 0.3,-0.8 0,-1.1 -0.9,-0.9 -2,-1.3 -3.2,-1.3 -1.3,-0.1 -2.5,0.4 -3.3,1.3 z"
         id="path5510"
         inkscape:connector-curvature="0"
         style="fill:#2a4879;fill-opacity:1" /></g></g><rect
     style="opacity:1;fill:#000000;fill-opacity:0;stroke:#000000;stroke-width:0;stroke-miterlimit:4;stroke-dasharray:none;stroke-opacity:1"
     id="rect5528"
     width="52.446098"
     height="44.587734"
     x="-5.4114609"
     y="-0.78260022" /><rect
     style="opacity:1;fill:#000000;fill-opacity:0;stroke:#000000;stroke-width:0;stroke-miterlimit:4;stroke-dasharray:none;stroke-opacity:1"
     id="rect5640"
     width="50.661709"
     height="41.911152"
     x="-4.6679668"
     y="-0.039105829"
     ry="0" /></svg>