<?xml version="1.0" encoding="UTF-8" standalone="no"?>
<svg
   xmlns:dc="http://purl.org/dc/elements/1.1/"
   xmlns:cc="http://creativecommons.org/ns#"
   xmlns:rdf="http://www.w3.org/1999/02/22-rdf-syntax-ns#"
   xmlns:svg="http://www.w3.org/2000/svg"
   xmlns="http://www.w3.org/2000/svg"
   xmlns:sodipodi="http://sodipodi.sourceforge.net/DTD/sodipodi-0.dtd"
   xmlns:inkscape="http://www.inkscape.org/namespaces/inkscape"
   version="1.1"
   x="0px"
   y="0px"
   viewBox="0 0 66.398705 65.478622"
   enable-background="new 0 0 66 66"
   xml:space="preserve"
   id="svg5690"
   sodipodi:docname="SoftwareDevelopment.svg"
   width="66.398705"
   height="65.478622"
   inkscape:version="0.92.5 (2060ec1f9f, 2020-04-08)"><metadata
     id="metadata5696"><rdf:RDF><cc:Work
         rdf:about=""><dc:format>image/svg+xml</dc:format><dc:type
           rdf:resource="http://purl.org/dc/dcmitype/StillImage" /></cc:Work></rdf:RDF></metadata><defs
     id="defs5694" /><sodipodi:namedview
     pagecolor="#ffffff"
     bordercolor="#666666"
     borderopacity="1"
     objecttolerance="10"
     gridtolerance="10"
     guidetolerance="10"
     inkscape:pageopacity="0"
     inkscape:pageshadow="2"
     inkscape:window-width="1366"
     inkscape:window-height="705"
     id="namedview5692"
     showgrid="false"
     inkscape:zoom="6.5212121"
     inkscape:cx="33.153346"
     inkscape:cy="30.515798"
     inkscape:window-x="-8"
     inkscape:window-y="-8"
     inkscape:window-maximized="1"
     inkscape:current-layer="svg5690" /><g
     id="g5684"
     transform="translate(0.15334622,-0.15334522)"
     style="fill:#2a4879;fill-opacity:1"><g
       id="g5676"
       style="fill:#2a4879;fill-opacity:1"><path
         d="M 61.1,56.4 H 4.9 C 2.7,56.4 1,54.6 1,52.5 V 4.9 C 1,2.8 2.8,1 4.9,1 H 61.1 C 63.2,1 65,2.8 65,4.9 v 47.6 c 0,2.1 -1.8,3.9 -3.9,3.9 z M 4.9,3 C 3.9,3 3,3.9 3,4.9 v 47.6 c 0,1.1 0.9,1.9 1.9,1.9 h 56.2 c 1.1,0 1.9,-0.9 1.9,-1.9 V 4.9 C 63,3.9 62.1,3 61.1,3 Z"
         id="path5674"
         inkscape:connector-curvature="0"
         style="fill:#2a4879;fill-opacity:1" /></g><g
       id="g5680"
       style="fill:#2a4879;fill-opacity:1"><path
         d="m 47.6,64 c 0,0.6 -0.4,1 -1,1 H 19.4 c -0.5,0 -1,-0.4 -1,-1 0,-0.6 0.5,-1 1,-1 h 3.8 V 58.4 H 42.9 V 63 h 3.8 c 0.5,0 0.9,0.4 0.9,1 z"
         id="path5678"
         inkscape:connector-curvature="0"
         style="fill:#2a4879;fill-opacity:1" /></g><path
       d="M 59.2,5.8 H 6.8 c -0.5,0 -1,0.5 -1,1 v 43.7 c 0,0.6 0.5,1 1,1 h 52.3 c 0.5,0 1,-0.4 1,-1 V 6.8 c 0.1,-0.5 -0.4,-1 -0.9,-1 z M 25.9,34 c 0.5,0.2 0.7,0.9 0.4,1.3 C 26,35.8 25.4,36 25,35.7 L 12.7,29.5 c -0.3,-0.2 -0.5,-0.5 -0.5,-0.9 0,-0.4 0.2,-0.7 0.5,-0.9 L 25,21.6 c 0.5,-0.3 1.1,-0.1 1.3,0.4 0.2,0.5 0.1,1.1 -0.4,1.3 L 15.4,28.6 Z M 38.3,17.6 29.5,40.5 c -0.2,0.5 -0.8,0.8 -1.3,0.6 -0.5,-0.2 -0.8,-0.8 -0.6,-1.3 l 8.8,-22.9 c 0.2,-0.5 0.8,-0.8 1.3,-0.6 0.6,0.2 0.8,0.8 0.6,1.3 z m 15,12 -12.4,6.2 c -0.5,0.2 -1.1,0.1 -1.3,-0.4 -0.2,-0.5 0,-1.1 0.4,-1.3 L 50.6,28.8 40,23.4 c -0.5,-0.2 -0.7,-0.8 -0.4,-1.3 0.2,-0.5 0.8,-0.7 1.3,-0.4 l 12.4,6.2 c 0.3,0.2 0.6,0.5 0.6,0.9 0,0.4 -0.2,0.6 -0.6,0.8 z"
       id="path5682"
       inkscape:connector-curvature="0"
       style="fill:#2a4879;fill-opacity:1" /></g><rect
     style="opacity:1;fill:#000000;fill-opacity:0;stroke:#000000;stroke-width:0;stroke-miterlimit:4;stroke-dasharray:none;stroke-opacity:1"
     id="rect5701"
     width="66.398705"
     height="65.478622"
     x="5e-07"
     y="5e-07" /></svg>